<?xml version="1.0" encoding="UTF-8"?>
<svg id="Layer_1" data-name="Layer 1" xmlns="http://www.w3.org/2000/svg" viewBox="0 0 296.91 227.62">
  <defs>
    <style>
      .cls-1 {
        fill: #d98997;
      }

      .cls-2 {
        fill: #8eb2d9;
      }

      .cls-3 {
        fill: #d88896;
      }

      .cls-4 {
        fill: #335171;
      }

      .cls-5 {
        fill: #c6dbe4;
      }

      .cls-6 {
        fill: #f2dce0;
      }
    </style>
  </defs>
  <ellipse class="cls-4" cx="148.45" cy="113.81" rx="148.45" ry="113.81"/>
  <path class="cls-5" d="M44.56,112.74c-.51.7-1.4,1.18-2.66,1.43-1.45.29-3.09.29-4.94,0-1.22-.19-2.49-.48-3.8-.89.21.39.42.84.64,1.34.46,1.04.89,2.16,1.28,3.37.39,1.22.7,2.37.91,3.47.34,1.7.24,3.03-.31,3.98-.54.94-1.44,1.54-2.68,1.79-.89.18-1.69.13-2.39-.14-.7-.27-1.28-.79-1.73-1.56-.53-.86-1.08-2.22-1.66-4.09-.58-1.86-1.16-4.23-1.72-7.09-.81-4.07-1.22-7.35-1.23-9.81,0-2.48.25-4.29.77-5.45.46-.99,1.27-1.87,2.43-2.65,1.15-.77,2.49-1.42,4-1.96,1.5-.54,3.02-.96,4.52-1.26,2.19-.43,3.83-.38,4.92.15,1.07.54,1.74,1.42,1.98,2.63.3,1.47-.14,2.68-1.28,3.63-1.15.95-3.06,1.69-5.71,2.21-.75.15-1.6.29-2.57.44-.82.13-1.66.25-2.55.37.16.51.29,1.08.41,1.72.18.94.29,1.87.31,2.78,3.08-.4,5.56-.53,7.43-.42,1.97.12,3.43.48,4.38,1.09.94.6,1.53,1.46,1.75,2.56.17.87,0,1.65-.5,2.35Z"/>
  <path class="cls-2" d="M48.8,88.39c1.39-.27,2.45-.11,3.2.49.75.6,1.22,1.37,1.4,2.29.23,1.16.03,2.13-.59,2.91-.63.78-1.62,1.31-2.97,1.58-1.33.26-2.39.11-3.17-.45-.79-.56-1.28-1.32-1.46-2.28-.24-1.21-.03-2.21.65-2.99.67-.78,1.66-1.3,2.96-1.55ZM51.02,97.99c1.13-.22,2.18.47,3.16,2.08.98,1.61,1.84,4.3,2.59,8.09.92,4.65,1.19,8.08.8,10.29-.39,2.21-1.39,3.47-3.01,3.79-1.24.25-2.31-.33-3.2-1.73-.89-1.4-1.71-3.99-2.46-7.77-.92-4.65-1.15-8.2-.69-10.65.46-2.45,1.4-3.81,2.81-4.09Z"/>
  <path class="cls-5" d="M69.56,90.62c2.77-.55,4.86-.51,6.26.13,1.4.64,2.24,1.65,2.52,3.04.17.87.03,1.62-.43,2.27-.46.65-1.21,1.07-2.25,1.28-.9.18-1.88.23-2.94.16-1.07-.07-2.25.02-3.55.28-1.13.22-1.93.62-2.42,1.18-.49.56-.67,1.18-.54,1.84.13.66.5,1.14,1.12,1.42.61.28,1.74.35,3.4.21,2.15-.19,3.99-.17,5.5.06,1.52.23,2.73.78,3.64,1.66.91.89,1.55,2.24,1.91,4.06.55,2.77-.04,5.01-1.78,6.7-1.74,1.69-4.38,2.89-7.93,3.6-2.31.46-4.2.62-5.67.49-1.47-.13-2.59-.51-3.36-1.14-.77-.63-1.25-1.43-1.45-2.42-.18-.92-.02-1.7.48-2.32.51-.63,1.18-1.02,2.02-1.19.66-.13,1.39-.19,2.17-.18.78.01,1.61.03,2.49.05.87.02,1.76-.06,2.66-.23,2.19-.43,3.16-1.32,2.9-2.65-.09-.46-.28-.82-.57-1.08-.29-.26-.77-.43-1.43-.5-.66-.08-1.61-.07-2.85.03-1.85.19-3.49.19-4.91,0-1.42-.18-2.58-.69-3.5-1.51-.91-.82-1.54-2.07-1.87-3.75-.54-2.71.08-5.11,1.86-7.19,1.78-2.08,4.62-3.51,8.52-4.28Z"/>
  <path class="cls-2" d="M109.5,105.75c-.1,1.67-.46,2.93-1.07,3.79-.61.87-1.41,1.39-2.39,1.58-2.31.45-3.79-.93-4.42-4.17-.28-1.39-.48-2.82-.61-4.32-.13-1.48-.31-2.84-.55-4.05-.35-1.76-.9-3.03-1.66-3.82-.76-.78-1.65-1.06-2.69-.86-1.3.26-2.23,1.05-2.81,2.4-.57,1.35-.65,3.06-.24,5.13.24,1.19.58,2.43,1.05,3.72.46,1.29.83,2.58,1.08,3.87.34,1.74.24,3.06-.31,3.96-.56.9-1.38,1.47-2.44,1.67-.76.16-1.45.16-2.09,0-.64-.14-1.25-.56-1.83-1.28-.58-.71-1.14-1.84-1.68-3.38-.39-1.06-.82-2.3-1.26-3.71-.44-1.42-.88-2.91-1.32-4.49s-.83-3.12-1.19-4.63c-.35-1.5-.66-2.86-.89-4.07-.84-4.19-.97-7.33-.42-9.42.54-2.08,1.69-3.3,3.46-3.66,1.18-.24,2.08,0,2.7.7.62.71,1.08,1.84,1.4,3.4.25,1.24.46,2.72.66,4.45.17,1.51.28,2.93.31,4.28.6-1.52,1.45-2.85,2.53-3.98,1.25-1.3,2.69-2.11,4.34-2.44,1.5-.29,2.92-.2,4.25.3,1.34.5,2.51,1.45,3.54,2.84.92,1.19,1.73,2.68,2.42,4.46.68,1.79,1.19,3.51,1.51,5.15.53,2.68.75,4.87.64,6.54Z"/>
  <path class="cls-5" d="M59.69,159.6c.04,1.73-.22,3.05-.78,3.93-.55.89-1.49,1.47-2.83,1.74-1.36.27-2.41.07-3.18-.59-.76-.66-1.33-1.96-1.71-3.89-.31-1.58-.51-3.26-.58-5.04-.04-1.23-.03-2.47.06-3.71-1.43.54-2.93.95-4.5,1.26-1.84.35-3.67.54-5.48.56.67,1.14,1.3,2.32,1.9,3.53.85,1.71,1.46,3.47,1.81,5.29.34,1.73.22,3.05-.38,3.95-.6.89-1.55,1.47-2.85,1.73-1.07.22-2,.1-2.79-.34-.8-.44-1.48-1.39-2.07-2.83-.44-1.2-.91-2.72-1.42-4.56-.5-1.83-.95-3.78-1.37-5.83-.49-2.48-.86-4.91-1.1-7.28-.25-2.37-.34-4.42-.3-6.17.03-1.53.31-2.75.86-3.64.55-.88,1.41-1.45,2.6-1.68,1.1-.22,2.01-.06,2.73.49.72.55,1.23,1.52,1.5,2.94.29,1.42.41,3.07.39,4.95-.02,1.49-.13,2.95-.35,4.36,1.6-.63,3.29-1.11,5.05-1.44,1.77-.33,3.45-.47,5.03-.42-.65-1.47-1.21-2.96-1.68-4.45-.52-1.68-.92-3.19-1.18-4.51-.29-1.47-.22-2.62.24-3.43.46-.81,1.29-1.34,2.51-1.57,1.18-.24,2.17-.06,2.99.53.81.59,1.51,1.6,2.13,3.05.59,1.32,1.17,2.95,1.73,4.9.57,1.95,1.05,3.94,1.47,6,.4,2.02.74,4.09,1.02,6.2.29,2.12.47,4.12.54,6Z"/>
  <path class="cls-2" d="M88.11,155.92c-.22,1.71-1.02,2.7-2.41,2.98-.92.18-1.69.06-2.3-.38-.61-.43-1.08-1.05-1.43-1.88-.3-.69-.52-1.43-.7-2.21-.16,1.05-.52,2.02-1.08,2.91-.68,1.06-1.52,1.94-2.54,2.64-1.02.7-2.07,1.16-3.18,1.38-1.55.3-3.01.23-4.35-.25-1.34-.46-2.51-1.4-3.5-2.79-.92-1.32-1.8-3.1-2.62-5.34-.82-2.23-1.47-4.58-1.96-7.04-.25-1.24-.42-2.4-.53-3.47-.11-1.07-.12-1.98-.02-2.72.11-.94.42-1.69.94-2.23.53-.54,1.24-.9,2.13-1.08,1.04-.21,1.94,0,2.68.62.76.62,1.32,1.57,1.7,2.88.3.9.6,2,.89,3.26.29,1.28.6,2.55.91,3.81.3,1.26.58,2.32.81,3.18.46,1.44,1.06,2.45,1.79,3.02.73.58,1.54.78,2.44.6,1.27-.26,2.13-.95,2.6-2.11.46-1.16.51-2.65.16-4.46-.19-.92-.44-1.97-.78-3.14-.34-1.16-.67-2.3-.99-3.4-.32-1.11-.56-2.03-.71-2.74-.31-1.59-.25-2.78.19-3.6.44-.81,1.18-1.31,2.22-1.51.87-.18,1.65-.11,2.36.19.7.29,1.29.79,1.75,1.47.58.79,1.16,1.89,1.74,3.3.58,1.42,1.14,3.04,1.68,4.87.55,1.83,1.02,3.78,1.44,5.86.64,3.24.86,5.7.64,7.41Z"/>
  <path class="cls-5" d="M115.01,149.76c-.2,1.09-.59,1.96-1.17,2.6-.58.64-1.33,1.05-2.25,1.23-.98.2-1.8,0-2.46-.57-.65-.57-1.1-1.46-1.33-2.64-.19-.92-.35-2.06-.5-3.39-.14-1.34-.29-2.69-.44-4.05-.15-1.37-.32-2.56-.52-3.57-.67-3.38-2.09-4.86-4.26-4.42-1.16.23-2.03.94-2.62,2.16-.58,1.21-.81,2.81-.69,4.8.06.77.2,1.71.4,2.82.21,1.11.41,2.21.61,3.3.2,1.08.34,2.01.43,2.77.24,1.91.1,3.32-.41,4.27-.5.94-1.32,1.52-2.44,1.74-1.36.28-2.48-.02-3.35-.88-.88-.87-1.55-2.48-2.02-4.85-.25-1.21-.48-2.58-.73-4.09-.24-1.51-.46-3.04-.66-4.57s-.35-2.94-.45-4.21c-.18-2.4-.07-4.35.32-5.85.39-1.5,1.26-2.39,2.59-2.65,1.12-.23,1.98,0,2.56.67.59.66,1.02,1.73,1.32,3.21.03.15.06.3.08.47.36-1.61,1.06-3,2.1-4.13,1.22-1.34,2.64-2.16,4.25-2.49,1.85-.36,3.5-.15,4.95.64,1.46.8,2.67,2.07,3.67,3.82.99,1.76,1.74,3.91,2.25,6.49.3,1.47.51,2.93.67,4.37.15,1.45.24,2.77.27,3.98.03,1.21-.02,2.22-.17,3.03Z"/>
  <path class="cls-2" d="M130.85,130.15c-.51.05-1.03.09-1.52.1.36.73.74,1.53,1.12,2.4.53,1.21,1.06,2.48,1.56,3.81.5,1.33.94,2.63,1.34,3.9.38,1.27.68,2.42.88,3.42.37,1.85.3,3.38-.19,4.59-.5,1.21-1.46,1.96-2.87,2.23-1.01.2-1.87.12-2.57-.26-.71-.37-1.3-.92-1.77-1.65-.48-.73-.87-1.56-1.17-2.49-.3-.93-.55-1.86-.74-2.78-.23-1.16-.41-2.48-.56-3.97-.14-1.48-.25-3.02-.3-4.62-.04-1.1-.05-2.17-.03-3.23-.96.63-2.15,1.08-3.56,1.37-1.42.28-2.59.2-3.5-.26-.91-.45-1.49-1.33-1.76-2.63-.27-1.36-.04-2.49.68-3.4.72-.9,1.82-1.5,3.29-1.8.75-.15,1.47-.24,2.15-.27.38-.02.74-.02,1.07,0-.32-1.19-.49-2.35-.55-3.47-.05-1.18.15-2.17.6-3,.45-.83,1.23-1.35,2.32-1.56,1.07-.22,1.91-.08,2.52.39.6.48,1.01,1.25,1.22,2.28.3,1.51.28,2.89-.06,4.13,1.05-.58,2.25-1,3.6-1.27,1.33-.27,2.45-.2,3.37.21.91.4,1.51,1.29,1.78,2.65.26,1.3-.02,2.36-.83,3.2-.82.84-1.91,1.4-3.29,1.67-.7.14-1.44.25-2.23.32Z"/>
  <path class="cls-5" d="M168.03,137.17c-.14-.7-.39-1.25-.76-1.65-.36-.41-.78-.7-1.25-.86-.47-.17-.93-.2-1.4-.11-.72.14-1.44.45-2.15.92-.72.47-1.59.98-2.63,1.53-1.03.55-2.42.99-4.15,1.34-2.05.4-3.71.35-4.99-.16-1.16-.46-1.93-1.45-2.31-2.93.67.13,1.37.2,2.11.22,1.13.04,2.29-.07,3.47-.3,2.22-.44,4.12-1.18,5.68-2.23,1.56-1.04,2.69-2.32,3.4-3.84s.88-3.19.51-5.01c-.45-2.28-1.56-3.97-3.34-5.07-1.78-1.1-4.31-1.33-7.57-.68-2.74.54-5.07,1.62-6.99,3.23-1.91,1.61-3.26,3.65-4.05,6.1-.8,2.46-.88,5.26-.26,8.41.5,2.48,1.36,4.53,2.6,6.15,1.24,1.62,2.94,2.7,5.1,3.26,2.17.56,4.93.51,8.28-.15,2.58-.51,4.69-1.21,6.34-2.09,1.65-.88,2.84-1.86,3.57-2.91.72-1.06.97-2.11.77-3.15ZM148.11,127.18c.42-.82,1.07-1.54,1.95-2.18.88-.65,1.9-1.08,3.06-1.31,1.21-.24,2.16-.14,2.87.3.71.45,1.14,1.09,1.31,1.93.23,1.16-.16,2.24-1.16,3.26-.99,1.03-2.39,1.72-4.18,2.07-1.18.24-2.15.22-2.89-.06-.75-.28-1.19-.79-1.35-1.53-.16-.84-.03-1.67.39-2.49Z"/>
  <path class="cls-2" d="M186.1,124.94c-.53,1.28-1.42,2.04-2.65,2.28-.92.19-1.66,0-2.22-.55s-.93-1.58-1.11-3.11c-.2-1.44-.47-2.4-.83-2.9-.35-.5-.8-.7-1.31-.6-.67.14-1.12.64-1.35,1.51-.24.87-.23,1.93.02,3.17.12.58.33,1.31.66,2.18.32.88.68,1.84,1.06,2.85.38,1.02.75,2.04,1.1,3.05.34,1.01.61,1.97.79,2.86.32,1.65.25,2.89-.25,3.75-.49.85-1.32,1.39-2.47,1.61-1.22.24-2.24.08-3.07-.47-.84-.56-1.56-1.58-2.19-3.08-.44-1.17-.93-2.6-1.47-4.28-.54-1.68-1.05-3.41-1.52-5.19-.47-1.78-.86-3.39-1.14-4.84-.6-3.01-.71-5.23-.33-6.69.37-1.46,1.15-2.3,2.33-2.54.87-.18,1.61,0,2.22.52.62.53,1.13,1.22,1.54,2.08.3.66.56,1.34.74,2.03.23-1.42.68-2.7,1.37-3.86.79-1.33,1.91-2.13,3.35-2.42,1.76-.34,3.21.11,4.35,1.37,1.13,1.26,1.92,2.96,2.34,5.1.56,2.82.58,4.88.05,6.16Z"/>
  <path class="cls-5" d="M199.05,108.5c2.77-.55,4.86-.51,6.26.13,1.4.64,2.24,1.65,2.52,3.04.17.87.03,1.62-.43,2.27-.46.65-1.21,1.07-2.25,1.28-.9.18-1.88.23-2.94.16-1.07-.07-2.25.02-3.55.28-1.13.22-1.93.62-2.42,1.18-.49.56-.67,1.18-.54,1.84.13.66.5,1.14,1.12,1.42.61.28,1.74.35,3.4.2,2.15-.19,3.99-.17,5.5.06,1.52.23,2.73.78,3.64,1.66.91.89,1.55,2.24,1.91,4.06.55,2.77-.04,5.01-1.78,6.7-1.74,1.69-4.38,2.89-7.93,3.6-2.31.46-4.2.62-5.67.49-1.47-.13-2.59-.51-3.35-1.14-.77-.63-1.25-1.43-1.45-2.42-.18-.92-.02-1.7.48-2.32.51-.63,1.18-1.02,2.02-1.19.66-.13,1.39-.19,2.17-.18.78.01,1.61.03,2.49.05.88.02,1.76-.06,2.66-.23,2.19-.44,3.16-1.32,2.9-2.65-.09-.46-.28-.82-.57-1.08-.29-.26-.77-.43-1.43-.5-.66-.08-1.61-.07-2.85.03-1.85.19-3.49.19-4.91,0-1.42-.18-2.58-.69-3.5-1.51-.91-.82-1.54-2.07-1.87-3.75-.54-2.71.08-5.11,1.86-7.19,1.78-2.08,4.62-3.51,8.52-4.28Z"/>
  <path class="cls-6" d="M155.44,85.16c.82-.5,13.98-5.74,22.9-5.45,19.6,1.46,36.33,12.28,42.05,29.33,8.13,24.19-8.96,51.75-38.17,61.56-18.63,6.26-37.7,3.78-51.17-5.11,19.38,18.83,48.85,26.32,76.81,16.92,39.46-13.26,61-55.12,48.1-93.49-11.66-34.69-44.1-58.92-83.35-48.39h0c-6.36,1.52-16.97,7.81-17.55,8.15,0,0-11.71,7.39-18.53,15.88l18.9,20.6Z"/>
  <path class="cls-3" d="M130.46,65.32c-2.05,1.22-3.99,2.81-5.72,4.72-.41-1.22-.59-2.8-.48-4.5.25-3.71,1.83-6.63,3.54-6.52,1.61.11,2.75,2.87,2.67,6.3Z"/>
  <path class="cls-3" d="M124.32,70.23c-1.34,1.47-2.57,3.13-3.62,4.97-.67,1.17-1.25,2.36-1.73,3.56-.28-1.15-.38-2.54-.25-4.03.33-3.71,1.98-6.59,3.68-6.44.8.07,1.48.81,1.92,1.95Z"/>
  <path class="cls-1" d="M155.06,47.44c-.44,3.62-1.8,7.86-4.04,12.1-.12.22-.23.44-.35.65l-.09.16c-.89,1.59-1.84,3.07-2.84,4.41l-.21-.12c-5.14-2.65-11.29-1.89-16.66,1.42-.04-1.7.18-3.62.65-5.66.67-2.93,1.86-6.13,3.55-9.31,5.08-9.59,12.77-15.48,17.17-13.14,1.9,1.01,2.88,3.38,2.96,6.53.02.93-.02,1.92-.15,2.97Z"/>
  <path class="cls-3" d="M164.49,82.64c-.62,1.17-1.73,2.45-3.17,3.58-1.3,1.01-2.65,1.72-3.85,2.08.45-2.25.61-4.47.47-6.61,0-.21-.03-.43-.05-.64,2.83-2.06,5.85-2.7,6.85-1.41l.03.04c.5.69.36,1.77-.28,2.96Z"/>
  <path class="cls-3" d="M155.88,96.12c-.9.67-1.82,1.21-2.69,1.59.72-1.13,1.38-2.33,1.95-3.6.77-1.7,1.35-3.42,1.76-5.14,1.13-.18,2.04.02,2.5.63,1.03,1.36-.55,4.29-3.52,6.52Z"/>
  <path class="cls-3" d="M168.42,68.77c-3.13,5.35-7.07,9.46-10.67,11.52-.19-6.3-2.9-11.87-7.75-14.77.61-1.56,1.35-3.16,2.23-4.76l.09-.16c.17-.32.35-.63.54-.95,5.49-9.37,13.42-14.91,17.72-12.4,4.3,2.52,3.34,12.15-2.15,21.52Z"/>
  <path class="cls-6" d="M158.17,81.33c0-.1,0-.2,0-.3-.23-7.25-3.41-13.24-8.72-16.43-.22-.14-.45-.28-.71-.41l-.23-.13h0s0-.01,0-.01c-2.35-1.21-4.93-1.82-7.65-1.82-1.84,0-3.71.29-5.56.84-1.85.55-3.68,1.38-5.44,2.46l-.24.14c-2.23,1.41-4.27,3.18-6.07,5.26-.14.16-.27.31-.38.46-1.38,1.67-2.6,3.51-3.62,5.49-.66,1.29-1.23,2.6-1.68,3.9-3.16,9.02-1.63,18.47,3.92,24.07,1.22,1.23,2.61,2.26,4.15,3.04,2.35,1.21,4.93,1.83,7.65,1.83,7.06,0,14.17-4.08,19.03-10.91.85-1.18,1.61-2.44,2.28-3.75.9-1.74,1.62-3.56,2.16-5.4.07-.22.12-.4.16-.59.64-2.35.97-4.73.97-7.06,0-.24,0-.48,0-.69Z"/>
  <path class="cls-1" d="M157.68,42.41c3.73-3.9,9.96-9.54,15.65-9.2.95.09,2.15.29,3.08.29,3.11.14,6.17-.51,9.13-1.43,1.98-.6,3.93-1.29,5.91-1.91,5.91-1.93,12.59-1.93,18.3.71,1.87.81,3.61,2.1,5.43,3.01,2.75,1.41,5.7,2.37,8.74,2.91.92.17,2.18.34,3.07.66,1,.34,1.95.87,2.78,1.51,2.41,1.93,4.34,4.49,7.18,5.8,3.68,1.82,7.67,3.06,11.6,4.22,1.69.83,3.05,2.11,4.24,3.54,2.33,2.83,3.57,6.38,4.23,9.93.78,3.47,1.45,7.03,2.78,10.33.52,1.19,1.12,2.37,2.15,3.16.33.26.69.41,1.12.67.82.5,1.49,1.22,1.98,2.02,1.88,3.23,1.74,7.16,1.32,10.73-.34,2.62-.79,5.3-.24,7.91.7,3.51,2.97,6.53,4.12,9.89,1.65,6.58-2.17,15.11-5.2,20.71-1.55,3.65-2.8,7.59-2.84,11.59-.05,1.37.3,2.6.67,3.91.28,1.45-.07,2.9-.58,4.19-1.64,3.82-4.52,6.91-7.54,9.69-1.9,1.34-3.5,3.25-4.49,5.36-.62,1.32-.99,2.76-1.08,4.21-.02.94-.14,1.92-.54,2.79-2.06,4.36-7.75,6.58-12.1,7.87-1.79.77-4.07,2.2-5.77,3.57-2.69,2.18-5.05,4.92-8.13,6.67-.9.59-2.41.75-3.46.93-5.58,1.01-11.38,3.03-14.95,7.67-4.21,4.35-12.22,1.19-16.77-1.15-2.48-2.03-5.85-3.24-9.06-2.71-1.68.19-3.03,1.1-4.65,1.62-1.65.51-3.4.55-5.08.39-3.37-.36-6.57-1.56-9.56-3.1-1.43-.81-2.89-1.61-4.44-2.2-1.53-.62-3.1-1.16-4.68-1.64-4.72-1.53-9.84-2.25-14.22-4.75-2.99-1.71-4.84-4.7-6.41-7.65-.8-1.46-1.52-2.98-2.24-4.47-.46-.92-.89-1.84-1.58-2.58-1.45-1.59.19-5.09.92-6.77l.06-.13h.14c3.13-.08,6.27-.25,9.4-.47,1.85-.1,5.34-.61,7.09-.31,2.96.33,3.59,2.58,5.42,4.36,1.14,1.05,2.58,1.73,4.03,2.24,4.43,1.51,9.47,1.21,13.63-.97,1.44-.66,2.99-1.04,4.54-1.29,3.12-.49,6.28-.45,9.41-.56,1.56-.08,3.16-.12,4.61-.76,4.38-1.63,8.42-4.5,13.18-4.93-4.76.45-8.77,3.34-13.15,5-1.45.65-3.07.71-4.63.79-4.66.22-9.54,0-13.88,1.93-4.2,2.24-9.31,2.58-13.82,1.07-1.5-.52-2.98-1.2-4.17-2.28-1.19-1.03-1.85-2.58-3.13-3.47-1.27-.87-2.93-.9-4.43-.82-4.69.43-9.4.79-14.12.91l.2-.13c-.71,1.62-2.15,4.84-.99,6.22.75.77,1.22,1.77,1.68,2.7.73,1.5,1.44,2.99,2.24,4.44,1.55,2.86,3.34,5.78,6.25,7.42,4.35,2.45,9.39,3.13,14.12,4.64,3.2.97,6.35,2.13,9.24,3.85,4.28,2.12,9.35,3.95,14.13,2.63,1.53-.51,3.07-1.46,4.74-1.65,2.56-.42,5.19.17,7.45,1.4.66.38,1.74,1.03,2.07,1.39,3.89,1.96,8.69,3.91,13.08,2.91,1.07-.28,2.05-.83,2.79-1.64.71-.87,1.55-1.82,2.44-2.55,3.66-3.05,8.32-4.52,12.93-5.36.98-.16,2.36-.31,3.23-.86,3-1.74,5.29-4.41,8-6.61,1.86-1.49,3.87-2.77,6.07-3.73,3.38-.97,6.81-2.37,9.48-4.69,1.55-1.36,2.61-3.15,2.54-5.23.16-2.81,1.36-5.5,3.16-7.63.77-.88,1.86-1.97,2.69-2.5,1.98-1.78,3.83-3.76,5.38-5.93,1.44-2.08,2.92-4.61,2.5-7.19-.13-.62-.41-1.32-.5-1.97-.68-4.81.93-9.61,2.75-14,3.02-5.6,6.73-13.79,5.18-20.19-.51-1.7-1.5-3.21-2.22-4.83-3.35-6.54-1.94-9.22-1.42-15.92.1-2.61-.1-5.35-1.44-7.62-.45-.73-1.03-1.36-1.75-1.8-.78-.36-1.66-1-2.19-1.73-1.63-2.24-2.25-5.01-2.94-7.62-.92-3.45-1.28-7.06-2.6-10.4-1.31-3.22-3.51-6.29-6.62-7.94-1.81-.48-3.98-1.24-5.89-1.89-1.95-.7-3.9-1.45-5.76-2.4-1.9-.93-3.51-2.34-4.97-3.8-1.44-1.45-2.95-2.87-4.91-3.52-1.94-.59-4.08-.74-6.04-1.35-2.51-.69-4.92-1.73-7.18-3.04-1.25-.74-2.69-1.71-4.03-2.29-5.63-2.63-12.2-2.67-18.07-.8-3.96,1.19-7.86,2.75-12,3.16-2.05.18-4.17.08-6.2-.24-5.66-.38-11.92,5.25-15.64,9.08Z"/>
  <circle class="cls-4" cx="128.78" cy="85.91" r="4.51"/>
  <circle class="cls-4" cx="140.74" cy="89.47" r="4.51"/>
  <path class="cls-2" d="M65.99,78.56s-4.58,4.48-9.41,5.95c0,0,.37-5.04,5.02-10.15,0,0,.08.77.54.9.46.13.92.67.89,1.2-.03.52.76.42,1.16.58.4.16.46.7.64,1.09.18.39,1.16.43,1.16.43Z"/>
  <line class="cls-2" x1="64.41" y1="77.51" x2="60.78" y2="81.07"/>
  <line class="cls-2" x1="62.65" y1="75.75" x2="59.37" y2="79.6"/>
  <path class="cls-2" d="M56.58,84.51s-.39,3.05-1.19,5.46c-.08.26-.21.54-.36.84-.74,1.44-2.22,3.27-3.83,4.49-1.23.93-2.54,1.51-3.63,1.25-2.83-.65-3.01-1.98-2.62-5.89.07-.68.31-1.27.66-1.78h0c1.22-1.8,3.79-2.67,5.08-3,.47-.12.78-.17.78-.17l5.12-1.2Z"/>
  <path class="cls-2" d="M52.23,81.26s-2.32,2.8-1.55,4.63c-1.29.34-3.86,1.2-5.08,3,.46-4.08,6.63-7.62,6.63-7.62Z"/>
  <line class="cls-2" x1="50.68" y1="85.89" x2="50.68" y2="85.88"/>
  <path class="cls-2" d="M59.85,90.08s-4.55,5.48-8.66,5.23c1.6-1.22,3.09-3.06,3.83-4.49,1.68,1.07,4.83-.73,4.83-.73Z"/>
  <path d="M47.8,91.58c.11.35-.08.73-.43.84-.35.11-.73-.08-.84-.43-.11-.35.08-.73.43-.84s.73.08.84.43Z"/>
</svg>