<?xml version="1.0" encoding="UTF-8"?>
<svg id="_2nd_page" data-name="2nd page" xmlns="http://www.w3.org/2000/svg" viewBox="0 0 226.0013 216.5793">
  <defs>
    <style>
      .cls-1 {
        fill: #fff;
      }
    </style>
  </defs>
  <path class="cls-1" d="M169.5488,55.705c-2.1-.59-4.15-1.09-6.15-1.52-.5699-.12-1.14-.23-1.7-.34s-1.12-.21-1.67-.3c-.55-.1-1.1-.19-1.6499-.27-10.55-1.63-19.4601-1.02-26.6801.54-.6.1299-1.2001.27-1.78.42-.2899.07-.58.14-.86.22-.86.22-1.6899.46-2.49.71-2.14.66-4.0801,1.39-5.8401,2.15-.4399.1899-.8599.3799-1.2799.5699-.2101.09-.41.19-.61.28-.2.1-.4.2-.6001.29-1.3699.67-2.59,1.35-3.6599,1.99-.3101.1801-.6001.36-.88.54-3.25,2.03-4.88,3.62-4.88,3.62,1.35-.27,2.6799-.51,3.97-.72.6899-.11,1.37-.22,2.04-.31.45-.07.9099-.13,1.35-.19.7799-.1,1.5299-.19,2.2799-.27.3801-.04.75-.07,1.1201-.1.73-.07,1.45-.13,2.1599-.18.7101-.04,1.4001-.08,2.0801-.11,6.61-.27,11.98.36,16.34,1.49.3099.07.61.15.9.24.1499.04.3.08.45.13.29.08.5701.17.8501.26.1499.04.2899.09.4299.14.27.09.54.18.8101.28.3999.14.79.29,1.1699.45.26.1.51.2.75.3.41.18.8.35,1.1801.54.1901.09.38.18.5699.27,1.1101.56,2.1101,1.14,3.01,1.7401.14.09.28.1899.42.28.12.09.24.17.36.26.1699.11.3301.24.49.35.5701.43,1.0801.85,1.55,1.26-.3601.32-.73.68-1.1101,1.07-.3799.39-.77.82-1.1599,1.29-2.3701-1.61-4.75-2.88-6.3301-2.88h-.02c-3.8099,0-10.8398-4.55-17.1399-4.55-.78,0-1.55.07-2.3.23-6.3,1.33-12.51,3.5099-17.15,3.5099-.3701,0-.73-.0099-1.08-.04-4.72-.4-3.86-8.24,1.17-11.95,5.02-3.7,7.9999-2.73,11.05-6.22,2.15-2.45,8.1101-3.87,12.91-3.87,2.0199,0,3.84.25,5.0699.78,1.02.44,2.23.58,3.55.58,2.7,0,5.88-.61,8.84-.61,1.55,0,3.04.17,4.38.68,5.96,2.26,6.1001.16,12.5801,2.95,3.3799,1.46,5.1199,3.54,5.9299,4.8199-.3101-.09-.62-.18-.9199-.28-.6101-.18-1.2201-.35-1.8201-.52Z"/>
  <path class="cls-1" d="M192.2087,104.825c-.0698,1.93-1.7,3.43-3.6299,3.35-1.92-.07-3.4301-1.69-3.3501-3.62.0801-1.93,1.7001-3.43,3.6301-3.36,1.9199.08,3.4299,1.7,3.3499,3.63Z"/>
  <path class="cls-1" d="M204.8988,105.315c-.08,1.93-1.7,3.43-3.63,3.36-1.9299-.08-3.4299-1.7-3.36-3.63.08-1.93,1.7101-3.43,3.63-3.35,1.9299.07,3.4299,1.7,3.36,3.6201Z"/>
  <path class="cls-1" d="M209.1989,96.395c-.59-1.2-1.36-2.42-2.35-3.63-.1401-.17-.29-.34-.4401-.5-.0699-.09-.14-.17-.22-.24-.0699-.09-.15-.17-.2301-.24-.0499-.05-.0999-.11-.1599-.16-.05-.05-.1-.1-.15-.15-.11-.1-.21-.19-.3199-.29-.22-.19-.4399-.37-.66-.55-.11-.09-.22-.17-.34-.2599-.0801-.06-.17-.1201-.25-.19-.0901-.06-.1801-.12-.26-.17-.12-.08-.23-.16-.3401-.23-.23-.15-.46-.29-.6899-.42h-.01c-.0701-.04-.1399-.08-.21-.12-.13-.07-.26-.14-.4-.21-.01-.01-.02-.01-.0299-.02-.1401-.08-.28-.14-.4302-.21-.0999-.05-.21-.11-.3198-.15-.1602-.07-.3201-.14-.4801-.21-.16-.0699-.3199-.1299-.49-.2-.16-.06-.3199-.12-.49-.18-.16-.0601-.3199-.1201-.49-.17-.28-.09-.5599-.17-.84-.25-.21-.06-.4301-.11-.6401-.17-.47-.11-.9399-.21-1.4099-.3-1.6699-.3-3.3401-.42-4.9-.42-.2599,0-.5199.01-.7699.01-.27.01-.52.02-.78.03-.3301.02-.66.04-.98.07-.0601,0-.1201.01-.1801.01-.16.02-.3199.03-.4701.05h-.0499c-.02,0-.0399,0-.0599.01-.0801,0-.16.0099-.25.02-.02.01-.04.01-.0601.01-.1.01-.21.03-.3.04-.1199.02-.24.03-.3599.05-.1101.01-.2201.03-.3401.05-.22.03-.4399.06-.65.1-.0699.01-.15.03-.22.04-.17.03-.35.07-.52.1-.0699.02-.14.03-.22.05-3.64.77-6.63,2.2-8.8199,4.02-.1401.12-.27.23-.3901.34-.1099.1-.22.2-.3199.3-.0599.05-.12.11-.1801.17l-.2999.3c-.12.13-.24.26-.35.39-.6201.7-1.14,1.44-1.5601,2.22-.4099.77-.72,1.58-.9199,2.39-.25,1.06-.3201,2.15-.1901,3.25.02.13.04.25.0599.39.01.05.01.1.03.15.02.12.04.24.0701.36.02.14.0601.28.1.43,0,.01,0,.02.01.04.0399.14.08.29.13.44.04.14.09.28.14.42.0099.01.0099.02.0099.03.03.06.05.12.0701.18.03.08.0601.15.1001.23,0,.02.01.03.0199.05.01.02.02.04.03.06,0,.02.01.04.02.06.0199.04.0399.08.0599.12v.02l.01.01v.01c.03.05.05.1.0701.15.03.05.05.11.08.16q0,.01.01.01c.0399.09.09.19.14.28.0601.12.13.24.2.36.13.23.28.47.4399.71.0801.11.1602.23.2401.35.0599.08.12.16.1801.24.0199.04.0499.07.0798.1.0901.12.1802.2401.28.35.0901.12.1901.24.29.35.03.05.0801.1.12.15.03.03.0599.07.09.1.01.02.03.03.04.05.03.04.0701.07.1001.11.0798.09.1499.17.23.2599.0699.07.1399.15.21.22v.01l.09.09c-.0399,0-.08,0-.12.01h-.01c-.1499.01-.3.02-.45.03h-.14c-.15.01-.3099.01-.4601.01-.6099,0-1.24-.04-1.8899-.1201-.1201-.02-.24-.03-.3601-.05-.1299-.02-.25-.04-.3699-.06-.1201-.02-.25-.05-.3701-.07-.1299-.02-.25-.05-.3799-.08-.16-.04-.3301-.08-.5-.12-.1401-.04-.27-.07-.41-.11-.0699-.02-.13-.04-.1901-.05-.0599-.02-.1299-.04-.1799-.06-.13-.04-.26-.08-.39-.12-.12-.04-.24-.08-.37-.13-.1001-.03-.1899-.07-.29-.11-.09-.03-.1699-.06-.26-.1-.11-.04-.21-.08-.3199-.1299-.0599-.02-.12-.05-.1901-.08-.05-.02-.09-.04-.1399-.07-.1201-.05-.24-.1-.3601-.16-.11-.06-.23-.12-.34-.18-.1-.05-.2001-.1-.2999-.16-.03-.01-.0601-.03-.0801-.04-.1-.06-.1899-.11-.28-.16l-.33-.21c-.09-.05-.1801-.11-.26-.17-.08-.05-.16-.11-.24-.16-.0599-.05-.13-.1-.2001-.15-.0699-.05-.1399-.11-.21-.16-.1299-.11-.27-.22-.3899-.32,0-.01-.01-.01-.01-.01-.0601-.05-.1201-.11-.1801-.16-.0599-.06-.12-.1201-.1801-.1801-.0599-.05-.11-.1-.1599-.16-.04-.04-.0901-.09-.1301-.13-.0699-.08-.1399-.16-.21-.24-.04-.05-.0699-.1-.11-.15-.1-.11-.1901-.23-.2599-.35l-.1201-.18c-.04-.06-.0699-.11-.11-.17-.0399-.08-.08-.16-.12-.23s-.0701-.15-.1-.22q-.01-.01-.01-.02c-.03-.07-.0599-.14-.09-.21-.03-.08-.05-.16-.0701-.23-.03-.08-.05-.15-.0601-.23-.0399-.15-.0599-.29-.0698-.44-.01-.13-.01-.27,0-.41.0099-.17.0299-.34.0798-.5099.02-.1.05-.2.0901-.3.0601-.15.13-.3.21-.44.0801-.13.17-.2599.27-.38.15-.18.3101-.35.51-.5099.04-.03.0901-.07.14-.11.0399-.04.09-.07.14-.1.09-.06.1699-.12.27-.18.0499-.03.1099-.06.1599-.09.0601-.03.1201-.06.1801-.09l.14-.07c.0699-.04.1499-.07.23-.1.04-.02.09-.04.13-.06.0199-.0099.0399-.02.0599-.02.0601-.03.1201-.05.1801-.07.02-.01.0399-.02.0599-.02.1201-.04.24-.08.3701-.12.0399-.02.08-.03.1199-.04.02,0,.04-.01.0601-.01.11-.03.23-.06.3501-.09.1399-.03.2799-.06.4299-.09.1499-.03.3-.05.4399-.07h.01c.15-.02.3-.04.45-.06-.1199-.13-.25-.27-.3699-.41-.1201-.14-.24-.28-.3601-.42-.03-.03-.0499-.06-.08-.1-.0199-.03-.0499-.06-.08-.09-.1101-.13-.22-.27-.3201-.41-.0599-.07-.1199-.15-.1799-.23-.16-.21-.3201-.42-.46-.63-.53-.74-.98-1.48-1.3401-2.1899,0-.01-.01-.01-.01-.02-.04-.07-.0699-.14-.1-.21-.0399-.06-.0599-.12-.09-.18v-.01l-.0601-.12c-.08-.18-.1599-.35-.23-.52-.1-.2599-.1899-.5099-.27-.75-.05-.16-.09-.3199-.1299-.47-.01,0-.01-.01-.01-.02-.03-.11-.0601-.23-.0801-.34-.03-.12-.05-.23-.0701-.34v-.01c-.02-.14-.0399-.28-.0499-.42-.02-.26-.03-.51-.01-.75.02-.21.0399-.4.09-.58.02-.09.05-.18.0801-.2599.11-.35.3-.65.54-.9.6199-.64,1.5898-.87,2.76-.74.21.03.4299.06.6599.11.4399.1.9199.24,1.4099.42.2401.09.4901.19.7401.31.1901.08.39.17.58.27.0901.05.1899.1.29.15.23.12.47.25.7.39.13.07.26.15.38.23.14.08.27.16.41.25-2.72-7.08-2.0901-13.88,1.51-15.37.47-.19.98-.29,1.51-.29.09,0,.1799,0,.27.01.1.01.1899.01.29.03.0898.0099.1799.02.2699.04.02,0,.04,0,.0599.01.0701.01.1602.03.24.05,0,0,.01,0,.02.01.0701.01.1401.03.2101.05.22.06.4401.14.67.23.08.03.1599.06.25.1.08.04.1699.08.25.12.1299.06.26.13.3899.2h.01c.1201.07.24.14.3701.22.1399.09.2899.18.4299.28.12.08.24.16.36.25.12.09.24.18.35.27.02.01.03.02.04.03.13.1.26.21.39.33.13.11.25.22.38.34.1299.12.26.24.3899.37.1101.1.2101.2.3.3.2.21.4.4301.6001.66.0898.1.1899.21.2799.32.09.12.1901.23.28.35.1.12.1901.24.2899.36.0901.13.1801.25.28.38.0901.12.1801.25.27.38.1001.13.1801.26.27.4.0901.13.1799.27.27.41.09.14.1799.27.26.41.1799.28.35.57.51.87.4399-3.64,1.9299-6.29,4.1299-6.7.5-.09,1-.07,1.5.07.0801.02.1501.04.2301.07.08.02.15.05.23.08.0699.03.14.06.2201.09.0798.04.1499.07.23.11.0699.04.1399.08.22.13.1499.08.3.18.45.28.0701.05.15.11.22.17.14.11.29.23.4401.36.0699.06.14.13.21.2l.2101.21c.0499.05.0999.1.1399.15.15.15.28.31.42.47.01.01.02.02.0299.03.03.05.0701.1.1101.14.04.06.09.12.13.18.0399.05.09.11.13.16.05.0699.09.1299.1399.2.0901.12.1702.2401.26.37.0801.13.17.27.25.4.0801.14.17.27.25.41.1602.29.3201.58.4701.88.0699.15.15.31.22.46.0699.16.15.32.2201.48.0599.16.1299.32.2.4901.0699.17.1299.34.2.5.13.35.24.7.36,1.06.05.17.11.36.16.54.0601.18.11.37.1599.56.05.18.0901.37.1401.56.0499.19.09.38.1299.58.04.19.0801.38.1201.58.02.14.0499.27.0699.41.36-.58.74-1.11,1.14-1.58.09-.12.1899-.23.29-.34.0999-.11.2-.21.2999-.32l.29-.29c.1-.1.2-.18.2999-.27.16-.14.3301-.27.49-.38.1101-.08.22-.15.3301-.22.05-.03.1-.06.1599-.09.05-.03.1001-.06.1501-.09.1099-.05.22-.1.3199-.15.11-.04.22-.08.3199-.11.05-.01.0901-.02.14-.03.0599-.02.12-.03.1801-.04.05-.0099.1-.02.1399-.03.05,0,.0901-.01.1301-.01.0499,0,.1099-.01.1599-.01.0601,0,.13.01.1899.01.0601.01.1101.01.1602.02.1199.02.24.05.3499.09,1.8501.69,2.3501,4.13,1.3701,8.16.74-.51,1.48-.89,2.2-1.12.16-.06.3101-.1.47-.14.48-.12.9301-.17,1.3501-.13.1699.01.33.03.48.07.3099.06.59.18.85.35.0599.04.12.09.1801.14,1.6499,1.34,1.21,4.69-.92,7.8Z"/>
  <path class="cls-1" d="M225.0889,93.895c-1.41-9.74-4.3501-19.18-7.95-27.78-7.8-18.62-18.76-33.31-24.26-38.56-3.8-3.64-7.8501-4.96-11.52-5.12-2.0801-.1-4.04.17-5.77.61-3.1001.78-5.02-2.67-2.75-4.95.05-.05.09-.09.1399-.14,1.42-1.4,1.3501-3.55-.1499-4.57-5.13-3.5-10.3301-6.2-15.5601-8.23C135.0688-3.475,112.6089.045,95.1288,6.135c-12.59,4.38-22.6,10.1-28.08,13.58-2.21,1.4-3.69,2.44-4.3,2.88-.22.16-.46.29-.71.4-9.37,4.1-12.48,9.84-8.23,18.68,4.25,8.83,19.53,38.89,18.53,39.02-4,.51-29.32-31.36-33.68-32.73-2.98-.95-11.89,5.61-16.54,9.48-1.61,1.35-2.71,2.3701-2.87,2.63-.07.13-.16.27-.26.39-5.34,6.71-9.33,13.81-12.25,20.98C-.9911,100.475-1.1111,119.985,1.6188,133.895c.89,4.55,2.08,8.5,3.42,11.64,2.41,5.69,5.74,8.58,9.05,9.92,1.47.6,2.95.89,4.34.99,2.62.1801,3.65,3.1,1.74,5.04l-1.64,1.68c-.96.98-1.24,2.35-.72,3.46,5.82,12.37,13.45,21.71,21.86,28.77,6.88,5.76,14.27,9.99,21.61,13.08,21.07,8.86,41.77,8.37,48.8,7.88,1.49-.11,2.8-1.16,3.21-2.54l.8301-2.8101.6899-2.36c.8201-2.77,4.72-3.48,6.03-1.09.1299.24.26.49.3999.74,2.1001,4.06,6.4001,3.35,7.1201,3.2.08-.02.1799-.03.27-.05,4.7699-.55,9.3899-1.56,13.8298-2.94,20.1901-6.25,36.9102-20.02,49.1201-33.03,8.84-9.41,15.3199-18.41,19.04-23.87,1.8799-2.76,3.0599-4.61,3.48-5.15,2.4399-3.14.1099-5.02-.3501-5.35-.0499-.03-.1099-.08-.1599-.12l-6.48-5.45c-2.0701-1.74-.5901-5.21,2.3199-5.46l10.4501-.9c1.4299-.13,2.71-1.13,3.1299-2.46,3.3401-10.82,3.65-22.01,2.0801-32.82ZM94.5588,92.825c3.59-.45,8.23.71,8.55,3.27.4,3.13-1.28,5.55-3.2,7.23,5.53-.16,7.98,4.23,8.11,5.3.39,3.09-1.18,7.24-4.78,10.72.83-2.39,1.12-4.4.91-6.01-.49-3.93-4.68-5.81-9.2-5.36l-.04-.26,4.15-4.09c.5-.92.66-1.83.56-2.63-.31-2.45-2.94-4.25-6.3-3.83.02-1.4.42-2.84,1.24-4.34ZM115.0588,98.005l1.47,16.92,3.3301.9c-1.1101,2.85-2.9401,3.43-3.3601,3.48-1.7999.23-2.8999.1-4.5499-.39l.2999-3.46-1.33-10.57-3.4-2.99c1.91-1.52,5.52-3.29,7.54-3.89ZM108.1088,91.745c-.15-1.23,1.58-2.84,2.3799-2.94.8101-.1,2.8501,1.04,3,2.26.16,1.2599-1.5399,2.87-2.34,2.97-.7999.1-2.88-1.03-3.04-2.29ZM127.2788,111.245l-3.05-.7401,4.8801-10-10.73,1.35c.76-1.69,1.2-2.44,2.9299-4.44l14.8101-1.86.0699,1.15-8.91,14.54ZM138.7288,112.285c-.76,1.69-1.21,2.44-2.9299,4.44l-14.8201,1.87-.1599-1.03,1.5701-3.1801,16.3398-2.1ZM109.0188,140.685c.16,1.2599-1.54,2.87-2.34,2.97s-2.88-1.04-3.04-2.3c-.15-1.22,1.58-2.83,2.39-2.93.8-.1,2.84,1.04,2.99,2.26ZM89.8588,93.415l2.67,23.44c5.46.55,6.28.26,10.29-.25-1.55,3.73-4.76,5.02-5.52,5.12-2.33.29-7.7.81-11.15-.74l2.13-1.58-2.97-19.33-3.88-2.77c2.63-1.61,4.83-2.93,8.43-3.89ZM101.6488,155.415l-.08.01c-2.4-2.14-6.17-2.79-8.69-2.79,1.1-3.89,4.4-3.5699,8.2-2.93.34.85.56,1.68.67,2.56.13,1.03.11,2.08-.1,3.15ZM75.5988,155.235l-.01-.07c1.8-2.05,4.27-3.68,4.92-3.76,3.21-.41,5.84,2.64,6.06,4.43-1.31,3.74-5.89,6.79-9.46,7.43-.21-.47-.39-1.27-.47-1.95,3.3199-1.6201,5.29-3.23,5.06-5.0601-.19-1.53-3.51-1.73-6.1-1.02ZM65.3988,125.575l-.17-1.03,1.58-3.18,16.33-2.09c-.75,1.68-1.2,2.44-2.9301,4.44l-14.81,1.86ZM65.7188,104.395l14.82-1.86.06,1.16-8.91,14.53-3.04-.74,4.87-10-10.73,1.35c.76-1.68,1.21-2.44,2.93-4.44ZM54.9088,95.785c.8-.1,2.84,1.04,3,2.26.15,1.26-1.54,2.87-2.35,2.97-.8.11-2.88-1.03-3.04-2.29-.15-1.22,1.59-2.84,2.39-2.94ZM59.4788,104.985l1.46,16.92,3.33.9c-1.11,2.86-2.9399,3.44-3.36,3.49-1.79.22-2.9.09-4.55-.4l.31-3.45-1.33-10.58-3.4-2.98c1.9-1.52,5.52-3.29,7.54-3.9ZM34.7988,127.405l2.13-1.55-2.99-19.48-3.88-2.77c2.63-1.61,4.85-2.78,8.45-3.74l2.69,23.59c2.84.38,5.5699.15,8.2-.18,1.6801-.21,3.35-.53,4.96-.97l.02.12c-1.24,1.9-5.64,5.13-6.17,5.27-.71.17-1.84.4301-3.18.59-2.9.37-6.83.28-10.23-.88ZM52.0089,176.465c-2.32.3-7.69.81-11.14-.73l2.13-1.55-2.97-19.36-3.88-2.77c2.63-1.62,4.83-2.94,8.4301-3.9l2.7,23.63c4.03.35,5.61.27,10.26-.43-1.55,3.72-4.76,5.02-5.53,5.11ZM59.3588,173.835l-.08-.65c7.74-8.4901,3.22-23.17-7.66-21.8-1.38.17-2.8.59-4.27,1.2401l-.27-.32c1.56-2.72,3.6299-4.45,4.37-4.74,1.0699-.4,2.14-.54,3.13-.66,7.2599-.91,12.8799,4.97,14.0099,13.91.31,2.52-2.64,10.53-9.23,13.02ZM82.1389,172.685c-7.91.99-11.77-3.1801-12.61-9.94-.31-2.44,2.44-7.67,4.8-9.91l.09.07c-.69,3.5-.65,7.18-.45,8.78.85,6.7599,4.92,7.68,9.81,7.0699,1.33-.17,2.84-.5099,4.46-.91-.9,3.33-2.25,4.35-6.1,4.84ZM96.4489,170.885c-2.59.33-4.78-.14-5.3-.23-.93-1.82-1.54-3.64-1.75-5.56l.08-.01c2.75,2.1,7.01,2.69,9.87,2.64-.41,1.33-2.21,3.07-2.9,3.16ZM99.9288,170.445c.96-1.6299,1.29-3.61,1.06-4.78-.42-2.47-11.72-3.5-12.42-9.03-.34-2.75,2.67-6.58,4.27-6.78-1.03,1.64-1.5099,2.44-1.2,4.03.7,4.02,11.77,3.52,12.58,10.01.28,2.22-2.99,6.39-4.29,6.55ZM112.0288,168.925c-1.79.23-2.9.1-4.55-.4l.3-3.45-1.32-10.57-3.4-2.99c1.9-1.52,5.52-3.29,7.53-3.89l1.47,16.92,3.3301.9c-1.1101,2.85-2.9401,3.4301-3.3601,3.48ZM125.6189,174.625c-1.7101-.98-3.01-2.06-3.9601-3.15l10.13-2.7-2.47-18.74c-3.0901-.5-6.67-.28-9.28.86-.73,1.88-.9099,4.19-.6899,5.94.3899,3.06,2.9099,5.57,9.54,5.51-1.0701,2-2.6201,3.24-3.54,3.36-4.6901.59-9.75-2.35-10.5-8.26-.5-3.97,6.51-11.18,8.84-11.47,1.0299-.13,3.38.39,5.23.86,1.52-.85,3.17-1.6,4.35-2.06l2.1101,19.82,1.2899,4.73c-3.47,2.33-8.52,4.44-11.0499,5.3ZM139.6089,165.305l.47-4.29-1.4-10.56-3.4301-3.18c1.91-1.52,5.1901-2.9,7.1801-3.65l1.85,16.87,1.52,4.03-6.1899.78ZM154.4288,163.445l.47-4.29-1.0099-8.01c-.4302-3.44-3.1301-4.85-5.6901-4.53-.9501.12-2.91.57-3.78,1.06l-.0599-.42c.6399-1.12,1.6399-2.72,3.0399-3.95.85-.34,1.7201-.52,2.5599-.63,3.8901-.49,7.54,1.69,7.9601,5.32l1.25,10.63,1.52,4.03-6.26.79ZM169.6788,161.685c-2.6.33-4.7899-.14-5.2999-.23-.9301-1.82-1.55-3.64-1.75-5.56l.0798-.01c2.7401,2.1,7,2.69,9.8701,2.64-.42,1.33-2.21,3.07-2.9,3.16ZM173.1488,161.245c.9601-1.63,1.29-3.61,1.0699-4.79-.4299-2.46-11.72-3.49-12.4199-9.02-.35-2.75,2.6599-6.58,4.27-6.78-1.04,1.64-1.52,2.44-1.2,4.03.7,4.02,11.76,3.52,12.58,10.0099.2799,2.22-3,6.39-4.3,6.55ZM166.1089,143.445c1.0999-3.91,4.3899-3.58,8.2-2.94.34.85.5601,1.6801.6699,2.5601.1301,1.03.1101,2.08-.1099,3.15l-.0701.01c-2.4099-2.14-6.1699-2.79-8.6899-2.78ZM210.3689,108.375s-.92,6.94-11.1501,7.58c-2.45.15-4.97.07-7.46-.3-1.55,3.27-3.86,6.82-7.2,10.53l1.89-8.45-5.61,5.35,3.09-7.93-5.76,4.72c.0699-.13,1.99-3.54,2.7999-8.1-1.25-.79-2.45-1.7-3.5898-2.74l-1.1001.1c-.1899.02-.3899.03-.6.04-1.26,5.47-.2201,10.55-.1801,10.76l-4.0499-6.2401.5299,8.5-3.72-6.8-.76,8.62c-3.5699-7.88-4.3099-14.33-3.83-19.32-.33-.37-.62-.75-.85-1.14-.71-1.18-.92-2.42-.63-3.56.4-1.58,1.71-2.8,3.65-3.48.03-.07.0599-.14.09-.21-1.9-2.51-2.9601-4.98-3.0699-7-1.2001-1.89-2.25-3.79-3.1401-5.68-5.2999,5.3199-6.3699,13.2599-6.3699,13.2599l-1.7001-7.2599-2.38,8.17-1.1899-7.66-3.65,7.85c-.9301-11.89,2.25-19.39,5.59-23.88-3.35-2.25-4.8999-2.59-5.53-2.59h-.01c-1.9099,0-4.26-.9-6.99-1.94-3.21-1.22-6.8499-2.61-10.1499-2.61-.71,0-1.4.07-2.03.2-2.05.43-4.1001.96-6.0901,1.47-4.1399,1.06-8.0499,2.06-11.3299,2.06-.41,0-.81-.0099-1.19-.04-2.02-.17-3.5-1.41-4.07-3.41-.99-3.4901,1.02-8.29,4.57-10.9,2.5-1.85,4.59-2.63,6.2599-3.25,1.8401-.69,3.1802-1.19,4.5801-2.79,2.48-2.83,8.87-4.31,13.9-4.31,1.6,0,3.88.15,5.59.88.75.3199,1.74.48,3.03.48,1.26,0,2.63-.14,4.09-.29,1.5599-.16,3.17-.32,4.75-.32,1.91,0,3.5.25,4.84.7599,2.6201.9901,3.99,1.08,5.4401,1.1801,1.75.11,3.5599.23,7.2001,1.79,3.5898,1.55,5.5199,3.75,6.5199,5.33l.83,1.33c6.49,2.23,13.6001,7.4901,19.4601,14.98,2.2899,2.93,4.21,5.96,5.72,8.98,1.04-.82,2.11-1.26,3.11-1.26.4,0,.79.07,1.16.2,2.0599.76,3.01,3.41,2.65,7.03.7-.2401,1.3899-.36,2.03-.36,1,0,1.8899.3,2.59.87,2.22,1.8,1.95,5.73-.67,9.56l-.46.6801c2.2,5.73.55,10.56.55,10.56Z"/>
</svg>