<?xml version="1.0" encoding="UTF-8"?>
<svg id="_2nd_page" data-name="2nd page" xmlns="http://www.w3.org/2000/svg" viewBox="0 0 225.9997 216.5718">
  <defs>
    <style>
      .cls-1 {
        opacity: .75;
      }

      .cls-2 {
        fill: #1a5c2f;
      }

      .cls-3 {
        fill: #f6efcc;
      }

      .cls-4 {
        fill: #d9763c;
      }

      .cls-5 {
        fill: #f2e7ad;
      }

      .cls-6 {
        fill: #d99f6d;
      }
    </style>
  </defs>
  <path class="cls-2" d="M223.0076,126.7101c-.4144,1.3352-1.7003,2.3317-3.1342,2.4567l-10.4419.9044c-2.9138.2532-4.3872,3.7196-2.3219,5.4594l6.4822,5.4528c.0493.0427.1052.0855.1579.1249.4604.319,2.7889,2.2035.3519,5.3377-.4243.5459-1.6017,2.4008-3.4795,5.1535-3.7229,5.4593-10.2018,14.464-19.0388,23.8699-12.2112,13.0071-28.9346,26.7838-49.1178,33.0325-4.4464,1.378-9.0672,2.3909-13.8425,2.9467-.0855.0099-.1776.0263-.2697.0427-.7169.1513-5.0154.8617-7.1202-3.1934-.1282-.2565-.2598-.5032-.3946-.7433-1.3089-2.3877-5.2094-1.6871-6.0283,1.0919l-.6939,2.3547-.0034.0033-.8254,2.8086c-.4079,1.3846-1.7234,2.4271-3.2033,2.5323-7.0379.4933-27.7309.9833-48.7988-7.8766-7.3439-3.0914-14.737-7.3175-21.6105-13.0795-8.4094-7.0511-16.0426-16.3978-21.8671-28.7669-.5197-1.1083-.2335-2.4863.7202-3.4598l1.6477-1.6806c1.9042-1.9404.8683-4.8608-1.7497-5.0417-1.3879-.0987-2.8645-.3914-4.3379-.9899-3.3118-1.3418-6.6367-4.2294-9.0507-9.919-1.3352-3.1408-2.529-7.0906-3.4203-11.6423-2.7264-13.9082-2.6113-33.4139,5.1272-52.4461,2.9138-7.1663,6.9096-14.27,12.2407-20.9791.0987-.1249.1908-.2565.2697-.3881.1546-.2697,1.253-1.2892,2.8678-2.6343,4.6471-3.8676,13.563-10.4254,16.5425-9.4849,4.351,1.3747,29.6713,33.243,33.6738,32.7398,1.0031-.1282-14.2799-30.1943-18.5257-39.0279-4.2524-8.837-1.1445-14.5759,8.2318-18.677.2467-.1118.4867-.2401.7071-.3979.6117-.4407,2.0851-1.4767,4.2985-2.881,5.4824-3.4795,15.4935-9.1954,28.0796-13.5793,17.4798-6.0908,39.9389-9.6065,62.1414-.98,5.2225,2.0292,10.4287,4.7325,15.5559,8.2285,1.5029,1.0261,1.5687,3.1671.1513,4.5681-.0494.0493-.0921.0954-.1415.1447-2.2692,2.2791-.3486,5.7225,2.7527,4.943,1.7299-.4308,3.69-.7071,5.7718-.6084,3.6702.1644,7.7155,1.4865,11.5172,5.1206,5.5022,5.2555,16.457,19.9365,24.2613,38.5642,3.6046,8.5936,6.5381,18.0356,7.949,27.777,1.5655,10.8135,1.2595,22.0019-2.0818,32.8187Z"/>
  <g>
    <g class="cls-1">
      <path class="cls-3" d="M151.3633,66.5742c-.7103.638-1.4865,1.4142-2.2659,2.3515-2.3778-1.6082-4.7621-2.8777-6.3408-2.8711-4.2754.0131-12.6519-5.7586-19.4564-4.3215-6.8012,1.4372-13.5004,3.861-18.2231,3.4631-4.726-.3947-3.861-8.2384,1.1675-11.9415,5.022-3.7097,7.995-2.7363,11.0503-6.2256,3.0552-3.4894,13.8129-4.8707,17.983-3.0849,4.1734,1.7825,11.6291-1.3024,16.7629.6446,5.9593,2.2594,6.104.1611,12.5861,2.9533,3.3743,1.4536,5.1141,3.5387,5.9231,4.8213-41.7938-12.9117-63.47,8.0937-63.47,8.0937,25.7182-5.1075,38.403.9209,44.2833,6.1171Z"/>
    </g>
    <path class="cls-5" d="M207.4632,92.2463c-.5854-1.1971-1.355-2.4173-2.3482-3.6242-.7596-.9241-1.6082-1.7167-2.5192-2.3909-.1677-.1282-.3388-.2499-.5164-.365-.4045-.2762-.8189-.5295-1.2431-.7663-1.4603-.809-3.0257-1.378-4.6109-1.7661-.4704-.1184-.9439-.2171-1.4142-.2993-3.1869-.5788-6.3506-.4867-8.8008-.1743-.4736.0592-.9275.125-1.3418.2006-.3289.0592-.6479.1217-.9669.1842-3.6407.7761-6.6268,2.2035-8.8205,4.0287-.569.4769-1.082.9735-1.5391,1.4931-1.2432,1.4043-2.0818,2.9763-2.4765,4.6174-.2532,1.059-.319,2.1476-.1875,3.2428.2269,1.9239,1.0623,3.8709,2.5718,5.7191.3552.4308.7169.8452,1.0886,1.2399.0263.0296.0559.0625.0855.0921,1.4767,1.5655,3.0947,2.8744,4.8114,3.9498-.8123,4.5583-2.733,7.972-2.8053,8.1003l5.7619-4.7161-3.0881,7.9325,5.6073-5.3508-1.8877,8.4489c3.3447-3.7163,5.6468-7.2583,7.1925-10.534,2.4929.3749,5.0121.4539,7.4655.2992,10.2314-.6413,11.1555-7.574,11.1555-7.574,0,0,1.9273-5.6633-1.174-11.9876ZM186.8491,104.0333c-1.9272-.0756-3.4302-1.697-3.3545-3.6275.0757-1.9272,1.7004-3.4269,3.6275-3.3545,1.9273.0756,3.4302,1.7003,3.3546,3.6275-.0757,1.9272-1.7004,3.4302-3.6276,3.3546ZM199.5339,104.5266c-1.9272-.0723-3.4269-1.697-3.3545-3.6242.0756-1.9305,1.7003-3.4302,3.6275-3.3545,1.9273.0723,3.4302,1.697,3.3545,3.6242s-1.697,3.4302-3.6275,3.3546Z"/>
    <path class="cls-5" d="M166.735,93.154c-1.332.1282-2.4962.4736-3.3743.9998.4769-1.2925,1.0097-2.3909,1.5195-3.2921.5393.7663,1.1609,1.5359,1.8548,2.2923Z"/>
    <path class="cls-5" d="M198.2678,78.1638c-.7959.6775-1.5918,1.6345-2.3252,2.7955-.023-.1349-.046-.273-.0723-.4078-1.2563-6.6927-5.0154-11.6061-8.3963-10.9714-2.1969.4111-3.6933,3.0586-4.1274,6.6993-3.121-5.5547-7.5839-8.8008-10.7642-7.4853-3.6012,1.4931-4.2359,8.2811-1.5161,15.3651-3.348-2.1772-6.5151-2.8349-7.9227-1.3879-1.1214,1.1511-.8847,3.3743.3913,5.8869-2.2496-3.0092-4.1077-6.1105-5.5481-9.1823-5.3015,5.3212-6.377,13.2603-6.377,13.2603l-1.7003-7.2583-2.3778,8.1726-1.1906-7.6563-3.6472,7.8536c-1.0063-12.869,2.7955-20.5878,6.4033-24.9224.7794-.9373,1.5556-1.7134,2.2659-2.3515-5.8803-5.1963-18.5651-11.2246-44.2833-6.1171,0,0,21.6763-21.0054,63.47-8.0937.3355.1085.6742.2138,1.0129.3223.0066,0,.0099.0033.0165.0033,6.7289,2.0423,14.2371,7.4392,20.3773,15.2797,2.5981,3.3217,4.7128,6.7782,6.3111,10.1952Z"/>
    <path class="cls-5" d="M173.7664,115.794l-4.0551-6.2421.536,8.4949-3.7228-6.7979-.763,8.6232c-4.032-8.9191-4.4563-15.9933-3.5847-21.206,1.0918,1.9075,3.792,3.7032,7.2024,4.5648,1.7431.444,3.4433.5821,4.9299.4571-1.8022,5.9593-.5887,11.8758-.5426,12.106Z"/>
    <path class="cls-6" d="M207.4632,92.2463c-.5854-1.1971-1.355-2.4173-2.3482-3.6242-.7596-.9241-1.6082-1.7167-2.5192-2.3909-.1677-.1282-.3388-.2499-.5164-.365-.4045-.2762-.8189-.5295-1.2431-.7663-.1644-.0921-.3322-.1809-.4999-.2631-.0593-.0329-.1184-.0592-.1776-.0888-.1809-.0888-.3585-.1743-.5427-.2565-.1282-.0592-.2597-.1184-.3913-.171-.25-.1085-.4999-.2072-.7531-.2993-.1151-.046-.2302-.0855-.3453-.125-.0164-.0066-.0361-.0131-.0526-.0164-.1216-.046-.2467-.0855-.3717-.125-.023-.0099-.0493-.0164-.0756-.0263-.1118-.0362-.2236-.0723-.3387-.1052-.1546-.046-.3125-.0921-.4704-.1348-.1973-.0559-.3946-.1052-.5919-.1546-.0494-.7729-.1448-1.5687-.2829-2.3745.7334-1.1609,1.5292-2.118,2.3252-2.7955,1.1379-.9768,2.2725-1.3879,3.2131-1.0393,1.8581.6874,2.358,4.1241,1.3681,8.1627,2.118-1.4602,4.2754-1.868,5.535-.8386,1.6543,1.3451,1.207,4.6865-.9209,7.7977Z"/>
    <path class="cls-4" d="M196.2255,83.3337c-.4704-.1184-.9439-.2171-1.4142-.2993-3.1869-.5788-6.3506-.4867-8.8008-.1743-.3059-1.1741-.7104-2.3745-1.207-3.5815-.4374-1.059-.9242-2.0621-1.457-2.9994.4341-3.6407,1.9305-6.2882,4.1274-6.6993,3.3809-.6347,7.1399,4.2787,8.3963,10.9714.0263.1348.0493.273.0723.4078.1381.8058.2335,1.6016.2829,2.3745Z"/>
    <path class="cls-6" d="M174.4242,103.6781c-.0395.0033-.0756.0066-.1151.0099-1.4865.125-3.1868-.0132-4.9299-.4571-3.4104-.8617-6.1106-2.6573-7.2024-4.5648-.4802-.8321-.6545-1.6871-.4506-2.4962.2072-.8255.7894-1.5062,1.6345-2.0127v-.0033c.8781-.5262,2.0423-.8715,3.3743-.9998.3157.342.6446.6808.9866,1.0129.967.9373,1.9667,1.766,2.9566,2.46.2269,1.9239,1.0623,3.8709,2.5718,5.7191.2664.3223.5361.638.8123.9406.0888.102.1809.2006.2763.2992.0263.0296.0559.0625.0855.0921Z"/>
    <path class="cls-4" d="M170.8657,93.3842c-.2532,1.059-.319,2.1476-.1875,3.2428-.9899-.694-1.9896-1.5227-2.9566-2.46-.342-.3322-.6709-.6709-.9866-1.0129-.6939-.7564-1.3155-1.526-1.8548-2.2923-.5295-.7466-.98-1.4865-1.3451-2.2035-1.276-2.5126-1.5128-4.7358-.3913-5.8869,1.4076-1.4471,4.5747-.7893,7.9227,1.3879.0888.2302.1775.4604.2762.6907.5854,1.4142,1.2596,2.7264,1.9996,3.9169-1.2432,1.4043-2.0818,2.9763-2.4765,4.6174Z"/>
    <path class="cls-6" d="M186.0105,82.8601c-.4736.0592-.9275.125-1.3418.2006-.3289.0592-.6479.1217-.9669.1842-3.6407.7761-6.6268,2.2035-8.8205,4.0287-.569.4769-1.082.9735-1.5391,1.4931-.74-1.1905-1.4142-2.5028-1.9996-3.9169-.0987-.2302-.1874-.4604-.2762-.6907-2.7198-7.084-2.0851-13.872,1.5161-15.3651,3.1802-1.3155,7.6431,1.9305,10.7642,7.4853.5328.9373,1.0196,1.9404,1.457,2.9994.4965,1.207.901,2.4074,1.207,3.5815Z"/>
  </g>
  <g>
    <path class="cls-6" d="M33.0612,123.2575l2.1326-1.5477-2.9907-19.4812-3.8775-2.7704c2.6291-1.61,4.8477-2.781,8.4506-3.7378l2.6927,23.5909c2.8398.3796,5.5649.1538,8.1995-.1773,1.68-.211,3.3453-.5367,4.9582-.9722l.0145.115c-1.2349,1.9004-5.6381,5.1294-6.1632,5.2726-.7156.1677-1.8467.4262-3.1831.5942-2.9018.3645-6.8297.2765-10.2334-.8861Z"/>
    <path class="cls-5" d="M57.7405,100.8427l1.4665,16.9189,3.3321.8999c-1.1151,2.8552-2.9429,3.4339-3.3626,3.4866-1.7944.2255-2.8973.0925-4.5487-.3979l.3032-3.4513-1.329-10.5758-3.3999-2.9856c1.9032-1.5191,5.5199-3.292,7.5385-3.8948ZM50.7875,94.5806c-.1535-1.2217,1.5827-2.8362,2.3847-2.9368.8016-.1008,2.8452,1.0387,2.9988,2.2604.1583,1.2596-1.54,2.8696-2.3416,2.9705-.802.1005-2.8835-1.0345-3.0418-2.2941Z"/>
    <path class="cls-5" d="M66.9118,113.342l4.8715-9.9977-10.7287,1.3479c.758-1.6849,1.2063-2.439,2.9326-4.4402l14.8136-1.8612.0678,1.1552-8.916,14.5387-3.0408-.7429ZM65.0718,117.2188l16.3363-2.0911c-.7576,1.6852-1.206,2.4396-2.9326,4.4405l-14.8139,1.8612-.1677-1.0258,1.5779-3.1847Z"/>
    <path class="cls-6" d="M84.4149,116.8444l2.1277-1.5859-2.9715-19.3286-3.8772-2.7704c2.6288-1.61,4.8281-2.9339,8.4313-3.8903l2.6731,23.4377c5.4605.555,6.2766.2585,10.2854-.2451-1.5487,3.724-4.7604,5.0192-5.5238,5.1153-2.3291.2926-7.6933.8113-11.1452-.7326ZM92.8215,88.6791c3.5887-.4509,8.2335.7104,8.555,3.2689.3931,3.1304-1.2805,5.5517-3.203,7.2279,5.527-.1516,7.9782,4.2333,8.1127,5.3022.3883,3.0929-1.1842,7.2462-4.7806,10.7229.8241-2.3917,1.1138-4.4058.9124-6.0094-.494-3.9327-4.6859-5.8103-9.205-5.359l-.0337-.2675,4.1402-4.0878c.5052-.9166.6623-1.8287.5614-2.6304-.307-2.4435-2.9381-4.2462-6.2978-3.8238.0183-1.3984.4182-2.8446,1.2384-4.3438Z"/>
    <path class="cls-5" d="M113.3278,93.8589l1.4665,16.9189,3.3318.8999c-1.1148,2.8552-2.9426,3.4336-3.3626,3.4866-1.7944.2255-2.8969.0925-4.5487-.3982l.3032-3.451-1.3287-10.5758-3.3999-2.9859c1.9032-1.5188,5.5199-3.292,7.5385-3.8945ZM106.3745,87.5968c-.1535-1.2217,1.5827-2.8362,2.3844-2.9371.802-.1005,2.8456,1.039,2.9991,2.2607.1583,1.2596-1.54,2.8693-2.3416,2.9702s-2.8835-1.0342-3.0418-2.2938Z"/>
    <path class="cls-5" d="M122.4988,106.3582l4.8715-9.9977-10.7287,1.3479c.758-1.6852,1.2063-2.4393,2.9329-4.4405l14.8136-1.8612.0678,1.1552-8.9163,14.5387-3.0408-.7425ZM120.6592,110.235l16.336-2.0915c-.7576,1.6855-1.206,2.4399-2.9326,4.4408l-14.8136,1.8612-.1677-1.0261,1.5779-3.1844Z"/>
    <path class="cls-6" d="M42.8437,144.0146l2.6975,23.6291c4.0381.3456,5.6176.2634,10.2614-.4361-1.549,3.7236-4.7604,5.0189-5.5238,5.1149-2.3288.2926-7.6936.8116-11.1452-.7326l2.1326-1.5477-2.9763-19.3668-3.8772-2.7704c2.6288-1.61,4.8281-2.9336,8.431-3.8903ZM49.8811,147.2414c-1.3746.1728-2.7964.5839-4.2661,1.2339l-.2724-.3147c1.559-2.7168,3.6292-4.4508,4.3689-4.7372,1.0737-.4063,2.1428-.5408,3.1356-.6655,7.2543-.9115,12.8802,4.9746,14.0027,13.9089.3164,2.5196-2.6326,10.5308-9.2227,13.0263l-.0816-.6494c7.7363-8.4956,3.2168-23.1695-7.6644-21.8023Z"/>
    <path class="cls-5" d="M72.5946,148.6925l.0858.0668c-.6851,3.4988-.6494,7.1788-.4477,8.7824.8489,6.758,4.9206,7.6811,9.8079,7.067,1.3364-.1677,2.8443-.5123,4.462-.9092-.8999,3.3318-2.2453,4.3538-6.1013,4.8384-7.9033.9931-11.7622-3.1757-12.6114-9.9338-.307-2.4435,2.4483-7.6759,4.8047-9.9116ZM74.9002,157.1678c3.3257-1.6203,5.2958-3.2252,5.0658-5.0578-.1921-1.5275-3.5142-1.7305-6.1003-1.0171l-.0096-.0768c1.7979-2.0487,4.2693-3.678,4.9184-3.7596,3.2069-.4027,5.8389,2.641,6.0643,4.4353-1.3149,3.7333-5.8951,6.7905-9.46,7.4322-.2152-.4769-.3921-1.2693-.4785-1.9562Z"/>
    <path class="cls-5" d="M99.258,161.5152c-.4265-2.4675-11.7243-3.4914-12.4199-9.0274-.3453-2.7492,2.6638-6.5788,4.2674-6.7802-1.0345,1.6428-1.5159,2.4399-1.2002,4.0291.6995,4.023,11.7673,3.5245,12.5828,10.015.2781,2.2145-2.9981,6.3877-4.296,6.5509.958-1.6325,1.2911-3.6135,1.066-4.7874ZM87.7454,160.9448c2.7457,2.0982,7.0082,2.6872,9.8721,2.6381-.4146,1.3319-2.2129,3.0697-2.8998,3.1561-2.5963.3263-4.7874-.1352-5.3028-.2251-.9272-1.823-1.5442-3.6459-1.7456-5.5594l.0761-.0096ZM99.3483,145.564c.3392.8492.5595,1.6749.6696,2.553.1298,1.031.1063,2.0812-.1076,3.1548l-.0764.0096c-2.402-2.1416-6.1684-2.7932-8.6883-2.7865,1.1-3.9,4.3981-3.5778,8.2027-2.931Z"/>
    <path class="cls-5" d="M108.8584,143.477l1.4661,16.9189,3.3321.8999c-1.1151,2.8552-2.9426,3.4336-3.3626,3.4863-1.7944.2255-2.8969.0928-4.549-.3979l.3035-3.451-1.3287-10.5758-3.4002-2.9856c1.9036-1.5191,5.5203-3.2923,7.5388-3.8948ZM101.9051,137.2148c-.1535-1.2217,1.5827-2.8362,2.3844-2.9371.802-.1005,2.8456,1.039,2.9991,2.2607.158,1.2596-1.54,2.8696-2.3416,2.9702-.802.1008-2.8835-1.0342-3.0418-2.2938Z"/>
    <path class="cls-5" d="M119.9221,167.3344l10.131-2.7078-2.4698-18.7319c-3.0884-.5039-6.6678-.2868-9.2779.8556-.7339,1.876-.9092,4.1864-.6886,5.9426.3838,3.0543,2.9104,5.5681,9.5352,5.5113-1.0679,1.9957-2.6185,3.2377-3.5348,3.353-4.6961.59-9.7571-2.3423-10.5006-8.2602-.4988-3.9706,6.5079-11.1728,8.837-11.4654,1.0306-.1294,3.3842.3896,5.2267.8562,1.522-.8508,3.1728-1.601,4.3563-2.0603l2.103,19.8255,1.2917,4.7241c-3.4683,2.3362-8.5168,4.4443-11.046,5.3048-1.7138-.9866-3.0129-2.0645-3.9632-3.1475Z"/>
    <path class="cls-5" d="M140.6988,139.4765l1.8483,16.871,1.5153,4.0368-6.1851.7772.4699-4.2866-1.4051-10.5662-3.4243-3.1764c1.9036-1.5188,5.1817-2.9005,7.181-3.6559ZM146.4664,142.475c-.9545.1198-2.9159.5604-3.7843,1.057l-.0527-.4198c.634-1.1267,1.6354-2.7261,3.0331-3.9488.8495-.3395,1.7179-.5264,2.5578-.6317,3.8942-.4895,7.542,1.6897,7.9595,5.3218l1.2574,10.6233,1.5156,4.0368-6.2615.7869.4699-4.2866-1.0075-8.0177c-.4317-3.4362-3.1292-4.8426-5.6873-4.5211Z"/>
    <path class="cls-5" d="M172.4837,152.3149c-.4262-2.4675-11.7243-3.4911-12.4199-9.0271-.3453-2.7492,2.6641-6.5792,4.2674-6.7805-1.0345,1.6428-1.5162,2.4399-1.2002,4.0291.6995,4.0233,11.7676,3.5245,12.5831,10.015.2781,2.2145-2.9981,6.3881-4.2966,6.5512.9584-1.6325,1.2914-3.6138,1.0663-4.7877ZM160.9711,151.7445c2.746,2.0985,7.0082,2.6872,9.8721,2.6381-.4146,1.3319-2.2125,3.0701-2.8998,3.1565-2.5963.326-4.7874-.1352-5.3028-.2255-.9272-1.8226-1.5439-3.6459-1.7456-5.5594l.0761-.0096ZM172.5739,136.3641c.3395.8489.5595,1.6746.67,2.5527.1294,1.031.106,2.0812-.1079,3.1548l-.0764.0096c-2.402-2.1412-6.1681-2.7929-8.6883-2.7861,1.1-3.9003,4.3981-3.5778,8.2027-2.931Z"/>
  </g>
</svg>