<?xml version="1.0" encoding="UTF-8"?>
<svg id="Layer_1" data-name="Layer 1" xmlns="http://www.w3.org/2000/svg" viewBox="0 0 1183.76 1277.85">
  <defs>
    <style>
      .cls-1 {
        fill: none;
      }

      .cls-2 {
        fill: #f26a2f;
      }

      .cls-3 {
        fill: #6b5ca7;
      }

      .cls-4 {
        fill: #f05640;
      }

      .cls-5 {
        fill: #7dccbd;
      }

      .cls-6 {
        fill: #66b74b;
      }

      .cls-7 {
        fill: #c2d83e;
      }

      .cls-8 {
        fill: #28bae5;
      }

      .cls-9 {
        fill: #ffcd2f;
      }
    </style>
  </defs>
  <path class="cls-1" d="M766.7,770.17c-4.94,12.37-11.89,22.94-20.82,31.7-8.97,8.97-19.85,16.13-32.64,21.51-12.83,5.35-27.01,8.86-42.58,10.46v51.58h-40.04v-51.3c-13.97-1.46-27.35-4.66-40.14-9.7-12.83-5-24.16-12.34-33.99-22-9.84-9.49-17.73-21.51-23.63-36.01-5.91-14.49-8.86-31.87-8.86-52.1h49.7c0,15.05,2.22,27.53,6.71,37.47,4.48,9.94,10.29,17.87,17.45,23.77,6.99,5.91,14.95,10.11,23.91,12.62,8.97,2.5,18,3.75,27.15,3.75,11.64,0,22.11-1.42,31.42-4.28,9.32-2.88,17.17-7.09,23.64-12.65,6.43-5.35,11.4-11.96,14.91-19.74,3.48-7.79,5.25-16.58,5.25-26.45,0-8.06-1.39-15.54-4.17-22.42-2.78-6.88-7.23-13.31-13.31-19.22-6.08-5.91-13.97-11.4-23.63-16.51-9.66-5.11-21.13-9.8-34.38-14.11-16.65-5.18-31.7-11.19-45.12-18-13.45-6.78-24.92-14.95-34.41-24.43-9.66-9.31-17.1-20.06-22.28-32.22-5.21-12.2-7.79-26.24-7.79-42.2,0-15.02,2.26-28.64,6.85-40.81,4.55-12.2,11.05-22.84,19.46-31.98,8.24-8.97,18.32-16.2,30.24-21.76,11.89-5.56,25.1-9.21,39.59-11.02v-59.09h40.04v59.09c13.07,1.81,24.99,5.25,35.73,10.36,10.74,5.11,20.05,11.68,27.94,19.74,10.18,10.74,17.97,24.02,23.36,39.87,5.39,15.85,8.13,34.1,8.34,54.67h-49.43c0-11.99-1.49-23.04-4.45-33.16-2.95-10.11-7.19-18.87-12.76-26.21-5.73-7.16-12.72-12.79-20.96-16.93-8.24-4.1-17.62-6.15-28.19-6.15-11.47,0-21.45,1.6-29.96,4.83-8.51,3.2-15.43,7.79-20.82,13.69-5,5.35-8.83,11.78-11.4,19.19-2.61,7.44-3.89,15.71-3.89,24.85s1.43,16.93,4.28,23.91c2.89,6.99,7.44,13.35,13.69,19.08,6.08,5.74,14.01,11.05,23.77,15.99,9.77,4.9,21.55,9.7,35.31,14.35,16.86,5.56,31.98,11.75,45.43,18.53,13.42,6.81,24.78,14.77,34.1,23.91,9.32,9.14,16.44,19.71,21.38,31.7,4.9,11.99,7.37,25.96,7.37,41.92s-2.47,29.54-7.37,41.88ZM1034.85,524.26l-169.55-107.75c-6.43-4.07-4.8-13.83,2.57-15.64l83.9-20.51-78.48-135.94h-132.43l-178.06,92.98c-6.74,3.51-14.39-2.75-12.27-10.05l24.19-82.93h-156.96l-66.21,114.67v.03l-8.51,200.69c-.31,7.58-9.56,11.05-14.84,5.6l-59.71-62.42-78.48,135.94,66.21,114.67,169.55,107.71c6.43,4.1,4.83,13.87-2.57,15.68l-83.91,20.51,78.48,135.94h132.43l178.06-92.98c6.74-3.51,14.39,2.75,12.27,10.05l-24.19,82.93h156.97l66.21-114.67v-.03l8.52-200.69c.31-7.58,9.59-11.09,14.84-5.6l59.71,62.42,78.48-135.94-66.21-114.67Z"/>
  <path class="cls-4" d="M171.79,202.6c-229.06,245.04-229.05,627.6,0,872.65l30.81-30.81c-212.1-228.03-212.11-583,0-811.03l-30.81-30.81Z"/>
  <path class="cls-2" d="M202.6,171.79l30.81,30.81c228.03-212.1,583-212.1,811.03,0l30.81-30.81c-245.05-229.06-627.6-229.07-872.65,0Z"/>
  <path class="cls-9" d="M1044.45,1075.25c-228.03,212.1-583,212.1-811.03,0l-30.81,30.81c245.05,229.06,627.6,229.07,872.65,0l-30.81-30.81Z"/>
  <path class="cls-9" d="M710.84,134.07c97.51,0,191.73,40.77,258.48,111.85l21.38,22.77-109.69-43.64c-2.45-.98-5.07-1.48-7.71-1.48h-132.43c-3.36,0-6.67.81-9.65,2.37l-152.62,79.69,16.15-55.37c1.84-6.3.6-13.1-3.34-18.35-3.94-5.25-10.12-8.34-16.68-8.34h-96.9l113.35-89.5h119.65M710.84,113.21h-126.89l-166.18,131.21h156.96l-24.19,82.93c-1.7,5.86,2.89,11.05,8.26,11.05,1.32,0,2.68-.31,4.01-1l178.06-92.98h132.43l196.73,78.27-85.51-91.05c-70.96-75.57-170.02-118.43-273.68-118.43h0Z"/>
  <path class="cls-6" d="M921.39,286l134.2,53.4,59.82,103.63c48.75,84.45,60.54,186.42,32.36,279.76l-9.03,29.92-17.03-116.8c-.38-2.61-1.26-5.13-2.58-7.42l-66.21-114.67c-1.68-2.91-4.04-5.37-6.87-7.17l-145.31-92.35,56.01-13.69c6.38-1.56,11.65-6.03,14.23-12.07,2.58-6.04,2.16-12.94-1.12-18.62l-48.46-83.93M873.3,244.42l78.48,135.94-83.9,20.51c-7.37,1.81-9,11.57-2.57,15.64l169.55,107.75,66.21,114.67,30.55,209.52,36.12-119.62c29.96-99.23,17.56-206.44-34.26-296.22l-63.44-109.91-196.73-78.27h0Z"/>
  <path class="cls-7" d="M1089.1,701.36l20.84,142.92-59.84,103.62c-48.76,84.44-131.17,145.64-226.1,167.9l-30.41,7.13,92.64-73.14c2.07-1.64,3.82-3.65,5.14-5.94l66.21-114.67c1.69-2.93,2.64-6.25,2.78-9.62l7.3-171.97,39.87,41.68c3.96,4.14,9.41,6.44,15.07,6.44.83,0,1.66-.05,2.49-.15,6.52-.78,12.29-4.59,15.57-10.28l48.45-83.92M1101.07,638.92l-78.48,135.94-59.71-62.42c-1.76-1.85-3.98-2.67-6.16-2.67-4.31,0-8.47,3.24-8.68,8.27l-8.52,200.69v.03l-66.21,114.67-166.18,131.21,121.64-28.53c100.92-23.67,187.56-88.01,239.4-177.77l63.46-109.89-30.55-209.52h0Z"/>
  <path class="cls-5" d="M712.46,972.22l-16.15,55.36c-1.84,6.3-.6,13.1,3.34,18.35s10.12,8.34,16.68,8.34h96.9l-113.35,89.5h-119.63c-97.52,0-191.74-40.78-258.5-111.87l-21.38-22.77,109.68,43.66c2.45.98,5.07,1.48,7.71,1.48h132.43c3.36,0,6.67-.81,9.65-2.37l152.62-79.69M732.27,939.44c-1.32,0-2.68.31-4.01,1l-178.06,92.98h-132.43l-196.73-78.31,85.51,91.07c70.97,75.58,170.03,118.45,273.7,118.45h126.88l166.18-131.21h-156.97l24.19-82.93c1.7-5.86-2.89-11.05-8.26-11.05h0Z"/>
  <path class="cls-8" d="M152.33,525.13l17.03,116.8c.38,2.61,1.26,5.13,2.58,7.42l66.21,114.67c1.68,2.91,4.04,5.37,6.88,7.17l145.35,92.34-56.04,13.7c-6.38,1.56-11.65,6.03-14.23,12.07-2.58,6.04-2.16,12.94,1.12,18.62l48.45,83.92-134.2-53.42-59.81-103.6c-48.76-84.45-60.56-186.43-32.37-279.78l9.03-29.91M159.45,429.4l-36.11,119.61c-29.96,99.24-17.56,206.46,34.27,296.24l63.43,109.87,196.73,78.31-78.48-135.94,83.91-20.51c7.4-1.81,9-11.57,2.57-15.68l-169.55-107.71-66.21-114.67-30.55-209.52h0Z"/>
  <path class="cls-3" d="M497.5,154.89l-92.66,73.16c-2.07,1.64-3.82,3.65-5.14,5.94l-66.21,114.67c-1.69,2.93-2.64,6.25-2.78,9.62l-7.3,171.97-39.87-41.68c-3.96-4.14-9.41-6.44-15.07-6.44-.83,0-1.66.05-2.49.15-6.52.78-12.29,4.59-15.57,10.28l-48.45,83.92-20.84-142.92,59.83-103.61c48.77-84.46,131.2-145.67,226.15-167.93l30.39-7.12M583.94,113.21l-121.6,28.5c-100.94,23.66-187.61,88.01-239.45,177.8l-63.45,109.88,30.55,209.52,78.48-135.94,59.71,62.42c1.78,1.83,4,2.66,6.18,2.66,4.31,0,8.46-3.22,8.66-8.25l8.51-200.69v-.03l66.21-114.67,166.18-131.21h0Z"/>
  <path class="cls-4" d="M675.22,375.04v59.09c13.07,1.81,24.99,5.25,35.73,10.36,10.74,5.11,20.05,11.68,27.94,19.74,10.18,10.74,17.97,24.02,23.36,39.87,5.39,15.85,8.13,34.1,8.34,54.67h-49.43c0-11.99-1.49-23.04-4.45-33.16-2.95-10.11-7.19-18.87-12.76-26.21-5.73-7.16-12.72-12.79-20.96-16.93-8.24-4.1-17.62-6.15-28.19-6.15-11.47,0-21.45,1.6-29.96,4.83-8.51,3.2-15.43,7.79-20.82,13.69-5,5.35-8.83,11.78-11.4,19.19-2.61,7.44-3.89,15.71-3.89,24.85s1.43,16.93,4.28,23.91c2.89,6.99,7.44,13.35,13.69,19.08,6.08,5.74,14.01,11.05,23.77,15.99,9.77,4.9,21.55,9.7,35.31,14.35,16.86,5.56,31.98,11.75,45.43,18.53,13.42,6.81,24.78,14.77,34.1,23.91,9.32,9.14,16.44,19.71,21.38,31.7,4.9,11.99,7.37,25.96,7.37,41.92s-2.47,29.54-7.37,41.88c-4.94,12.37-11.89,22.94-20.82,31.7-8.97,8.97-19.85,16.13-32.64,21.51-12.83,5.35-27.01,8.86-42.58,10.46v51.58h-40.04v-51.3c-13.97-1.46-27.35-4.66-40.14-9.7-12.83-5-24.16-12.34-33.99-22-9.84-9.49-17.73-21.51-23.63-36.01-5.91-14.49-8.86-31.87-8.86-52.1h49.7c0,15.05,2.22,27.53,6.71,37.47,4.48,9.94,10.29,17.87,17.45,23.77,6.99,5.91,14.95,10.11,23.91,12.62,8.97,2.5,18,3.75,27.15,3.75,11.64,0,22.11-1.42,31.42-4.28,9.32-2.88,17.17-7.09,23.64-12.65,6.43-5.35,11.4-11.96,14.91-19.74,3.48-7.79,5.25-16.58,5.25-26.45,0-8.06-1.39-15.54-4.17-22.42-2.78-6.88-7.23-13.31-13.31-19.22-6.08-5.91-13.97-11.4-23.63-16.51-9.66-5.11-21.13-9.8-34.38-14.11-16.65-5.18-31.7-11.19-45.12-18-13.45-6.78-24.92-14.95-34.41-24.43-9.66-9.31-17.1-20.06-22.28-32.22-5.21-12.2-7.79-26.24-7.79-42.2,0-15.02,2.26-28.64,6.85-40.81,4.55-12.2,11.05-22.84,19.46-31.98,8.24-8.97,18.32-16.2,30.24-21.76,11.89-5.56,25.1-9.21,39.59-11.02v-59.09h40.04M696.07,354.19h-81.75v62.54c-9.78,2.34-19,5.52-27.57,9.53-14.37,6.7-26.74,15.64-36.76,26.54-10.23,11.11-18.19,24.17-23.64,38.79-5.41,14.34-8.16,30.54-8.16,48.1,0,18.74,3.18,35.7,9.46,50.39,6.21,14.59,15.25,27.69,26.84,38.9,11.04,11.01,24.38,20.49,39.64,28.18,14.34,7.28,30.57,13.77,48.17,19.25,12.08,3.94,22.49,8.2,30.96,12.68,7.91,4.19,14.26,8.57,18.85,13.03,3.96,3.85,6.83,7.91,8.51,12.08,1.78,4.41,2.65,9.19,2.65,14.6,0,6.9-1.12,12.77-3.44,17.95-2.2,4.88-5.22,8.9-9.21,12.22l-.13.11-.13.11c-4.3,3.7-9.61,6.5-16.21,8.54-7.22,2.21-15.74,3.34-25.25,3.34-7.19,0-14.44-1-21.54-2.99-6.08-1.7-11.33-4.46-16.05-8.45l-.1-.08-.1-.08c-4.63-3.82-8.57-9.29-11.71-16.26-3.23-7.16-4.86-16.88-4.86-28.89v-20.85h-91.41v20.85c0,22.86,3.5,43.04,10.41,59.98,6.98,17.12,16.54,31.62,28.41,43.09,11.8,11.57,25.58,20.48,40.95,26.48,8.61,3.39,17.61,6.09,26.87,8.06v54.36h81.75v-54.56c10.48-2.16,20.43-5.2,29.76-9.09,15.28-6.44,28.48-15.16,39.29-25.95,10.96-10.77,19.54-23.81,25.51-38.78,5.88-14.8,8.85-31.48,8.85-49.61s-3-35.33-8.92-49.81c-6.01-14.61-14.78-27.61-26.07-38.69-10.77-10.57-23.98-19.86-39.26-27.62-14.47-7.29-30.71-13.92-48.34-19.74-12.6-4.27-23.59-8.72-32.5-13.19-7.9-3.99-14.25-8.22-18.82-12.52l-.11-.1-.11-.1c-4-3.66-6.78-7.48-8.51-11.67-1.78-4.36-2.7-9.75-2.7-15.95,0-6.76.91-12.81,2.72-17.95,1.62-4.67,3.95-8.63,6.95-11.84l.09-.1.09-.1c3.21-3.52,7.37-6.21,12.74-8.22,6.14-2.33,13.73-3.5,22.63-3.5,7.35,0,13.53,1.3,18.89,3.97,5.45,2.73,9.98,6.37,13.8,11.08,3.88,5.19,6.98,11.66,9.19,19.23,2.4,8.2,3.61,17.39,3.61,27.31v20.85h91.35l-.21-21.07c-.23-22.82-3.41-43.41-9.45-61.17-6.33-18.63-15.74-34.61-27.97-47.51l-.11-.12-.11-.12c-9.55-9.77-20.96-17.84-33.89-23.99-7.45-3.54-15.42-6.43-23.84-8.62v-62.84h0Z"/>
</svg>