<?xml version="1.0" encoding="UTF-8"?>
<svg id="Layer_1" data-name="Layer 1" xmlns="http://www.w3.org/2000/svg" viewBox="0 0 1188.86 1277.85">
  <defs>
    <style>
      .cls-1 {
        fill: #231f20;
      }
    </style>
  </defs>
  <path class="cls-1" d="M1138,430l-63.47-109.9c-.07-.1-.1-.17-.17-.28-.17-.24-.35-.45-.52-.66,0,0-.03,0-.03-.03l-85.5-91.07c-71.67-76.29-172.78-120.05-277.47-120.05h-126.9c-.38,0-.8.03-1.18.14l-.52.14-121.06,28.36c-101.94,23.88-190.44,89.57-242.78,180.25l-63.47,109.9c-.07.14-.14.24-.21.38-.07.17-.17.42-.24.63-.04.07-.04.14-.07.24l-36.08,119.46c-30.24,100.21-17.59,209.66,34.76,300.34l63.43,109.87c.07.1.1.17.17.28.17.24.35.45.52.66,0,0,.03,0,.03.03l85.5,91.07c71.67,76.33,172.85,120.09,277.51,120.09h126.87c.59,0,1.18-.1,1.74-.28l121.1-28.4c101.91-23.91,190.37-89.61,242.75-180.25l63.43-109.87c.07-.14.14-.24.21-.38.07-.21.17-.42.24-.63.03-.07.03-.14.07-.24l36.08-119.5c30.24-100.21,17.59-209.66-34.72-300.31ZM585.74,118.44h125.09c101.81,0,200.17,42.58,269.89,116.79l69.48,74-175.01-69.62c-.63-.24-1.29-.38-1.91-.38h-132.43c-.83,0-1.67.21-2.4.59l-178.06,92.98c-1.81.94-3.23.03-3.75-.38-.52-.42-1.67-1.63-1.11-3.58l24.19-82.93c.45-1.56.14-3.27-.83-4.59-.97-1.32-2.54-2.09-4.17-2.09h-141.92l152.93-120.78ZM590.47,824.43c-12.83-5.01-24.16-12.34-33.99-22-9.84-9.49-17.73-21.52-23.64-36.01-5.91-14.49-8.86-31.87-8.86-52.1h49.7c0,15.05,2.22,27.53,6.71,37.47,4.48,9.94,10.29,17.87,17.45,23.77,6.99,5.91,14.95,10.11,23.91,12.62,8.97,2.5,18,3.75,27.15,3.75,11.64,0,22.11-1.42,31.42-4.28,9.31-2.88,17.17-7.09,23.64-12.65,6.43-5.35,11.4-11.96,14.91-19.74,3.48-7.79,5.25-16.58,5.25-26.45,0-8.06-1.39-15.54-4.17-22.42-2.78-6.88-7.23-13.31-13.31-19.22-6.08-5.91-13.97-11.4-23.64-16.51-9.66-5.11-21.13-9.8-34.37-14.11-16.65-5.18-31.7-11.19-45.12-18-13.45-6.78-24.92-14.95-34.41-24.43-9.66-9.32-17.1-20.06-22.28-32.22-5.21-12.2-7.79-26.24-7.79-42.2,0-15.02,2.26-28.64,6.85-40.81,4.55-12.2,11.05-22.84,19.46-31.98,8.24-8.97,18.32-16.2,30.24-21.76,11.89-5.56,25.09-9.21,39.59-11.02v-59.09h40.04v59.09c13.07,1.81,24.99,5.25,35.73,10.36,10.74,5.11,20.06,11.68,27.95,19.74,10.18,10.74,17.97,24.02,23.36,39.87,5.39,15.85,8.13,34.1,8.34,54.67h-49.43c0-11.99-1.49-23.04-4.45-33.16-2.95-10.11-7.19-18.87-12.76-26.21-5.73-7.16-12.72-12.79-20.96-16.93-8.24-4.1-17.62-6.15-28.19-6.15-11.47,0-21.45,1.6-29.96,4.83-8.52,3.2-15.43,7.79-20.82,13.69-5,5.35-8.83,11.78-11.4,19.19-2.61,7.44-3.89,15.71-3.89,24.85s1.42,16.93,4.28,23.91c2.89,6.99,7.44,13.35,13.69,19.08,6.08,5.74,14.01,11.05,23.77,15.99,9.77,4.9,21.55,9.7,35.31,14.35,16.86,5.56,31.98,11.75,45.43,18.53,13.42,6.81,24.78,14.77,34.1,23.91,9.32,9.14,16.44,19.71,21.38,31.7,4.9,11.99,7.37,25.96,7.37,41.92s-2.47,29.54-7.37,41.88c-4.94,12.37-11.89,22.94-20.82,31.7-8.97,8.97-19.85,16.13-32.64,21.52-12.83,5.35-27.01,8.86-42.58,10.46v51.58h-40.04v-51.3c-13.97-1.46-27.35-4.66-40.14-9.7ZM227.42,322.12c50.92-88.22,136.98-152.1,236.11-175.32l98.75-23.15-147.75,116.68c-.28.21-.49.45-.69.69-.17.17-.31.38-.45.59-.03.07-.1.14-.14.21l-.17.35-66.04,114.32c-.42.73-.66,1.56-.69,2.43l-8.52,200.69c-.07,2.02-1.53,2.78-2.16,3.02-.66.24-2.29.63-3.72-.83l-59.71-62.42c-1.11-1.18-2.75-1.77-4.38-1.56-1.63.21-3.06,1.15-3.89,2.57l-70.98,122.94-28.12-192.87,62.56-108.34ZM162.11,842.65c-50.92-88.18-63.22-194.64-33.78-292.14l29.34-97.18,27.18,186.37c.07.56.24,1.08.49,1.53.1.24.24.49.38.7l65.97,114.28c.42.73,1.01,1.36,1.74,1.81l169.51,107.68c1.74,1.11,1.67,2.82,1.56,3.48-.1.66-.56,2.26-2.57,2.75l-83.91,20.51c-1.56.42-2.88,1.53-3.55,3.02-.63,1.49-.52,3.23.28,4.66l70.97,122.94-181.09-72.09-62.53-108.3ZM705.3,1159.43h-125.06c-101.81,0-200.2-42.58-269.93-116.82l-69.45-73.96,174.97,69.62c.63.28,1.25.38,1.91.38h132.43c.83,0,1.67-.21,2.4-.59l178.06-92.98c1.84-.94,3.23-.03,3.75.38.52.42,1.67,1.63,1.11,3.58l-24.19,82.93c-.45,1.56-.14,3.27.83,4.59.97,1.32,2.54,2.09,4.17,2.09h141.92l-152.93,120.78ZM1063.66,955.71c-50.92,88.18-136.98,152.06-236.07,175.32l-98.82,23.18,147.75-116.68c.24-.21.49-.42.7-.7.17-.17.31-.38.45-.59.14-.17.24-.35.31-.56l66.04-114.32c.42-.73.66-1.56.69-2.43l8.52-200.69c.07-2.02,1.56-2.78,2.19-3.02.28-.1.73-.24,1.29-.24.73,0,1.6.24,2.4,1.08l59.71,62.42c1.11,1.18,2.75,1.74,4.38,1.56,1.63-.21,3.06-1.15,3.89-2.57l70.98-122.94,28.12,192.87-62.53,108.31ZM1162.72,727.32l-29.34,97.18-27.18-186.34c-.03-.28-.1-.56-.17-.83-.1-.24-.17-.49-.31-.7-.1-.24-.24-.49-.38-.69l-65.97-114.28c-.42-.73-1.01-1.36-1.74-1.81l-169.55-107.75c-1.7-1.08-1.63-2.75-1.53-3.41s.59-2.26,2.57-2.75l83.91-20.51c1.56-.38,2.88-1.53,3.54-3.02.63-1.49.56-3.23-.28-4.66l-70.98-122.94,181.09,72.05,62.56,108.34c32.71,56.62,49.46,120.85,49.46,185.36,0,35.9-5.18,71.88-15.71,106.74Z"/>
  <path class="cls-1" d="M171.79,202.6c-229.06,245.04-229.05,627.6,0,872.65l30.81-30.81c-212.1-228.03-212.11-583,0-811.03l-30.81-30.81Z"/>
  <path class="cls-1" d="M202.6,171.79l30.81,30.81c228.03-212.1,583-212.1,811.03,0l30.81-30.81c-245.05-229.06-627.6-229.07-872.65,0Z"/>
  <path class="cls-1" d="M1044.45,1075.25c-228.03,212.1-583,212.1-811.03,0l-30.81,30.81c245.05,229.06,627.6,229.07,872.65,0l-30.81-30.81Z"/>
  <path class="cls-1" d="M1105.57,636.33l-.24-.38c.14.21.28.45.38.69-.03-.1-.07-.21-.14-.31ZM1105.57,636.33l-.24-.38c.14.21.28.45.38.69-.03-.1-.07-.21-.14-.31ZM1105.57,636.33l-.24-.38c.14.21.28.45.38.69-.03-.1-.07-.21-.14-.31ZM1105.57,636.33l-.24-.38c.14.21.28.45.38.69-.03-.1-.07-.21-.14-.31Z"/>
  <path class="cls-1" d="M185.33,641.23c.03.1.07.21.14.31l.24.38c-.14-.21-.28-.45-.38-.7Z"/>
</svg>