<?xml version="1.0" encoding="UTF-8"?>
<svg id="Layer_1" data-name="Layer 1" xmlns="http://www.w3.org/2000/svg" viewBox="0 0 1280.37 1277.85">
  <defs>
    <style>
      .cls-1 {
        fill: none;
      }

      .cls-2 {
        fill: #f26a2f;
      }

      .cls-3 {
        fill: #6b5ca7;
      }

      .cls-4 {
        fill: #f05640;
      }

      .cls-5 {
        fill: #7dccbd;
      }

      .cls-6 {
        fill: #66b74b;
      }

      .cls-7 {
        fill: #c2d83e;
      }

      .cls-8 {
        fill: #28bae5;
      }

      .cls-9 {
        fill: #ffcd2f;
      }
    </style>
  </defs>
  <path class="cls-1" d="M766.7,770.17c-4.94,12.37-11.89,22.94-20.82,31.7-8.97,8.97-19.85,16.13-32.64,21.51-12.83,5.35-27.01,8.86-42.58,10.46v51.58h-40.04v-51.3c-13.97-1.46-27.35-4.66-40.14-9.7-12.83-5-24.16-12.34-33.99-22-9.84-9.49-17.73-21.51-23.63-36.01-5.91-14.49-8.86-31.87-8.86-52.1h49.7c0,15.05,2.22,27.53,6.71,37.47,4.48,9.94,10.29,17.87,17.45,23.77,6.99,5.91,14.95,10.11,23.91,12.62,8.97,2.5,18,3.75,27.15,3.75,11.64,0,22.11-1.42,31.42-4.28,9.32-2.88,17.17-7.09,23.64-12.65,6.43-5.35,11.4-11.96,14.91-19.74,3.48-7.79,5.25-16.58,5.25-26.45,0-8.06-1.39-15.54-4.17-22.42-2.78-6.88-7.23-13.31-13.31-19.22-6.08-5.91-13.97-11.4-23.63-16.51-9.66-5.11-21.13-9.8-34.38-14.11-16.65-5.18-31.7-11.19-45.12-18-13.45-6.78-24.92-14.95-34.41-24.43-9.66-9.31-17.1-20.06-22.28-32.22-5.21-12.2-7.79-26.24-7.79-42.2,0-15.02,2.26-28.64,6.85-40.81,4.55-12.2,11.05-22.84,19.46-31.98,8.24-8.97,18.32-16.2,30.24-21.76,11.89-5.56,25.1-9.21,39.59-11.02v-59.09h40.04v59.09c13.07,1.81,24.99,5.25,35.73,10.36,10.74,5.11,20.05,11.68,27.94,19.74,10.18,10.74,17.97,24.02,23.36,39.87,5.39,15.85,8.13,34.1,8.34,54.67h-49.43c0-11.99-1.49-23.04-4.45-33.16-2.95-10.11-7.19-18.87-12.76-26.21-5.73-7.16-12.72-12.79-20.96-16.93-8.24-4.1-17.62-6.15-28.19-6.15-11.47,0-21.45,1.6-29.96,4.83-8.51,3.2-15.43,7.79-20.82,13.69-5,5.35-8.83,11.78-11.4,19.19-2.61,7.44-3.89,15.71-3.89,24.85s1.43,16.93,4.28,23.91c2.89,6.99,7.44,13.35,13.69,19.08,6.08,5.74,14.01,11.05,23.77,15.99,9.77,4.9,21.55,9.7,35.31,14.35,16.86,5.56,31.98,11.75,45.43,18.53,13.42,6.81,24.78,14.77,34.1,23.91,9.32,9.14,16.44,19.71,21.38,31.7,4.9,11.99,7.37,25.96,7.37,41.92s-2.47,29.54-7.37,41.88ZM1034.85,524.26l-169.55-107.75c-6.43-4.07-4.8-13.83,2.57-15.64l83.9-20.51-78.48-135.94h-132.43l-178.06,92.98c-6.74,3.51-14.39-2.75-12.27-10.05l24.19-82.93h-156.96l-66.21,114.67v.03l-8.51,200.69c-.31,7.58-9.56,11.05-14.84,5.6l-59.71-62.42-78.48,135.94,66.21,114.67,169.55,107.71c6.43,4.1,4.83,13.87-2.57,15.68l-83.91,20.51,78.48,135.94h132.43l178.06-92.98c6.74-3.51,14.39,2.75,12.27,10.05l-24.19,82.93h156.97l66.21-114.67v-.03l8.52-200.69c.31-7.58,9.59-11.09,14.84-5.6l59.71,62.42,78.48-135.94-66.21-114.67Z"/>
  <path class="cls-4" d="M171.79,202.6c-229.06,245.04-229.05,627.6,0,872.65l30.81-30.81c-212.1-228.03-212.11-583,0-811.03l-30.81-30.81Z"/>
  <g>
    <path class="cls-3" d="M1091.47,238.34c.23,1.97.71,3.84,1.44,5.61.72,1.77,1.67,3.35,2.86,4.74.71.84,1.43,1.51,2.17,2.02.75.51,1.49.86,2.24,1.04.75.18,1.47.2,2.17.04.69-.16,1.36-.5,1.98-1.03.8-.68,1.32-1.5,1.55-2.46s.28-2,.14-3.11c-.15-1.12-.4-2.32-.77-3.6-.37-1.28-.73-2.6-1.07-3.95-.35-1.36-.63-2.74-.86-4.13-.22-1.4-.26-2.78-.1-4.16.16-1.37.56-2.71,1.22-4.02s1.68-2.54,3.05-3.71c1.55-1.32,3.2-2.23,4.92-2.72,1.72-.49,3.46-.59,5.21-.31,1.74.28,3.46.95,5.12,2,1.67,1.06,3.24,2.45,4.72,4.19,1.49,1.76,2.64,3.54,3.44,5.36.81,1.82,1.35,3.72,1.63,5.71l-6.84,3c-.26-1.78-.71-3.43-1.34-4.96-.63-1.52-1.48-2.92-2.55-4.19-.6-.71-1.24-1.29-1.93-1.75-.69-.46-1.37-.78-2.06-.94-.69-.16-1.37-.17-2.04-.02-.68.15-1.3.47-1.88.95-.79.67-1.28,1.46-1.47,2.37s-.22,1.93-.07,3.05c.14,1.12.41,2.31.79,3.58.38,1.27.75,2.58,1.11,3.93.36,1.35.64,2.73.86,4.15.21,1.41.24,2.81.07,4.2-.16,1.38-.59,2.74-1.27,4.06-.68,1.32-1.73,2.59-3.16,3.8-1.6,1.35-3.28,2.26-5.06,2.73-1.79.47-3.59.54-5.4.22-1.81-.33-3.59-1.04-5.34-2.12-1.74-1.09-3.35-2.52-4.85-4.27-1.67-1.97-2.94-3.96-3.82-5.97-.87-2.01-1.41-4.06-1.6-6.15l6.81-3.19Z"/>
    <path class="cls-3" d="M1158.11,277.82l-10.33-14.22-9.31,6.77,9.56,13.15-6,4.36-9.55-13.15-9.76,7.09,10.33,14.22-6,4.36-15.6-21.47,37.07-26.94,15.6,21.47-6,4.36Z"/>
    <path class="cls-3" d="M1175.85,290.98c.98,1.39,1.92,2.76,2.82,4.11.9,1.35,1.72,2.63,2.46,3.84,1.83,2.99,3.18,5.83,4.06,8.54.88,2.71,1.28,5.2,1.19,7.48s-.64,4.32-1.64,6.11c-1.01,1.79-2.49,3.29-4.45,4.49-1.26.78-2.55,1.32-3.86,1.64-1.3.32-2.62.43-3.95.34s-2.66-.39-3.99-.9c-1.33-.51-2.66-1.2-3.98-2.08-1.48,2.9-3.1,5.88-4.88,8.95-1.77,3.07-3.69,6.17-5.74,9.32l-5.13-8.36c1.57-2.45,3.13-5.06,4.68-7.82,1.55-2.76,3.03-5.55,4.46-8.37-.49-.59-.96-1.22-1.41-1.88-.45-.67-.92-1.4-1.4-2.19l-13.63,8.36-4.69-7.64,39.07-23.95ZM1161.32,310.4c.2.33.4.65.59.96.19.31.39.63.59.96.94,1.54,1.94,2.81,2.99,3.83,1.05,1.01,2.11,1.74,3.19,2.21,1.07.46,2.15.65,3.22.57s2.12-.43,3.15-1.06c.99-.61,1.76-1.37,2.3-2.3.54-.92.83-1.97.89-3.14.05-1.16-.14-2.44-.59-3.83-.45-1.39-1.15-2.85-2.09-4.4-.19-.31-.37-.62-.56-.92-.18-.3-.37-.61-.56-.92l-13.12,8.04Z"/>
    <path class="cls-3" d="M1217.92,366.83c-7.39,2.11-15.06,3.86-23.02,5.23-7.96,1.38-15.99,2.41-24.09,3.1l-4.96-9.82c5.38-6.08,10.99-11.92,16.83-17.51,5.84-5.59,11.81-10.72,17.9-15.38l4.13,8.18c-2.38,1.83-4.79,3.76-7.24,5.81-2.44,2.05-4.86,4.16-7.26,6.34-2.39,2.18-4.75,4.41-7.05,6.7-2.31,2.29-4.55,4.57-6.69,6.86,3.1-.38,6.26-.83,9.47-1.34,3.21-.51,6.4-1.08,9.57-1.72s6.31-1.32,9.41-2.07c3.11-.75,6.1-1.54,8.97-2.39l4.03,8Z"/>
    <path class="cls-3" d="M1186.69,410.23l-3.5-8.25,42.2-17.86,3.5,8.25-42.2,17.86Z"/>
    <path class="cls-3" d="M1237.2,445c.64-1.75.98-3.52,1.01-5.3.03-1.78-.25-3.51-.83-5.17-.58-1.65-1.43-3.09-2.57-4.35-1.14-1.25-2.53-2.22-4.17-2.9s-3.51-1.02-5.61-1.02-4.39.44-6.87,1.3c-2.31.8-4.3,1.82-5.95,3.04s-2.96,2.6-3.91,4.13c-.95,1.52-1.5,3.18-1.66,4.98-.16,1.8.1,3.67.77,5.62.38,1.08.82,2.06,1.34,2.97.52.9,1.11,1.73,1.79,2.5.67.77,1.43,1.46,2.25,2.07s1.74,1.18,2.75,1.72l-6.23,4.39c-2.19-1.4-4.11-3.1-5.74-5.11-1.63-2.01-2.93-4.4-3.9-7.18-1.05-3.01-1.49-5.92-1.31-8.73.17-2.81.9-5.43,2.2-7.85s3.14-4.58,5.51-6.48,5.26-3.44,8.66-4.62c2.44-.85,4.77-1.39,7.01-1.62,2.24-.23,4.35-.19,6.33.12,1.98.32,3.82.87,5.53,1.66,1.71.79,3.25,1.79,4.63,3s2.58,2.6,3.6,4.17,1.86,3.29,2.5,5.14c.82,2.35,1.26,4.64,1.33,6.86.06,2.22-.28,4.33-1.04,6.35l-7.44.3Z"/>
    <path class="cls-3" d="M1253.17,490.71l-4.46-17-11.13,2.92,4.12,15.72-7.17,1.88-4.13-15.72-11.66,3.06,4.46,17-7.18,1.88-6.73-25.67,44.32-11.63,6.74,25.67-7.18,1.88Z"/>
    <path class="cls-3" d="M1230.02,516.37c-.78,1.83-1.3,3.69-1.55,5.58s-.21,3.74.12,5.54c.2,1.08.5,2.02.89,2.83.39.81.86,1.49,1.42,2.02.56.53,1.18.9,1.86,1.12.69.21,1.43.24,2.23.1,1.04-.19,1.89-.64,2.57-1.36.68-.72,1.24-1.6,1.66-2.64.43-1.04.81-2.21,1.13-3.5s.67-2.61,1.04-3.96.81-2.69,1.3-4.02c.5-1.33,1.16-2.55,1.98-3.66s1.84-2.07,3.06-2.88c1.22-.8,2.71-1.37,4.49-1.7,2.01-.37,3.88-.34,5.62.09,1.74.43,3.31,1.21,4.68,2.32,1.38,1.11,2.53,2.54,3.45,4.29s1.6,3.74,2.01,5.98c.41,2.26.52,4.39.32,6.36-.2,1.97-.68,3.89-1.43,5.76l-7.43-.8c.65-1.68,1.09-3.33,1.3-4.97s.16-3.27-.14-4.9c-.17-.91-.43-1.74-.8-2.48s-.81-1.36-1.32-1.84c-.52-.49-1.11-.83-1.77-1.04-.67-.21-1.36-.24-2.1-.11-1.01.19-1.83.63-2.46,1.33-.63.7-1.15,1.56-1.59,2.61-.43,1.04-.79,2.21-1.09,3.5-.3,1.29-.63,2.61-.99,3.96-.37,1.35-.81,2.69-1.32,4.02-.52,1.33-1.19,2.56-2.03,3.68-.83,1.12-1.87,2.08-3.12,2.89-1.26.81-2.8,1.39-4.64,1.73-2.05.38-3.96.33-5.75-.15-1.79-.48-3.38-1.31-4.79-2.49-1.41-1.18-2.6-2.68-3.57-4.5s-1.66-3.85-2.08-6.11c-.47-2.54-.58-4.9-.34-7.08.24-2.18.8-4.23,1.67-6.14l7.49.62Z"/>
    <path class="cls-3" d="M1231.07,623.16l5.34-6.39c-1.8-1.84-3.24-3.99-4.31-6.45-1.07-2.46-1.69-5.26-1.86-8.39-.13-2.4.05-4.58.54-6.54.48-1.95,1.24-3.64,2.26-5.05,1.02-1.41,2.29-2.52,3.8-3.32,1.52-.8,3.24-1.26,5.18-1.36,1.61-.08,3.08.06,4.4.44s2.53.93,3.64,1.64c1.11.71,2.13,1.55,3.08,2.53.95.97,1.81,1.98,2.61,3.04.79-.84,1.62-1.63,2.48-2.38s1.77-1.41,2.74-1.97c.96-.57,1.96-1.04,3.01-1.39,1.05-.36,2.16-.57,3.34-.63,1.83-.1,3.51.16,5.05.77,1.53.62,2.88,1.53,4.02,2.75,1.15,1.22,2.06,2.72,2.75,4.48.69,1.77,1.09,3.76,1.22,5.97.11,2.06-.05,3.94-.47,5.64-.43,1.7-1.08,3.17-1.98,4.42-.89,1.24-2,2.23-3.33,2.96-1.32.73-2.84,1.14-4.53,1.23-1.65.09-3.16-.12-4.53-.64-1.38-.52-2.63-1.23-3.78-2.14s-2.2-1.95-3.16-3.12c-.96-1.17-1.85-2.38-2.67-3.6l-8.04,9.64c1.34.42,2.74.74,4.19.97,1.45.22,2.95.29,4.47.21l.43,7.99c-2.51.07-4.97-.14-7.37-.62-2.39-.48-4.64-1.26-6.74-2.33l-5.46,6.56-6.31-4.92ZM1251.09,598.86c-.57-.7-1.15-1.34-1.73-1.91-.58-.57-1.18-1.06-1.81-1.47s-1.29-.71-1.99-.91c-.7-.2-1.45-.27-2.24-.23-.96.05-1.84.28-2.63.69-.79.41-1.45.98-2.01,1.71-.55.73-.96,1.6-1.21,2.62-.26,1.01-.35,2.16-.29,3.42.1,1.72.47,3.28,1.13,4.68.66,1.41,1.54,2.64,2.65,3.7l10.12-12.3ZM1273.49,600.9c-.04-.82-.22-1.55-.52-2.22s-.7-1.23-1.19-1.7-1.06-.82-1.7-1.05c-.65-.23-1.35-.33-2.1-.29-.71.04-1.38.18-2.02.42-.64.24-1.27.55-1.87.94s-1.2.85-1.8,1.39c-.59.54-1.18,1.14-1.77,1.79.72,1.04,1.41,1.96,2.07,2.76s1.31,1.48,1.97,2.02c.65.55,1.34.95,2.05,1.23.71.27,1.5.39,2.36.34.69-.04,1.32-.21,1.89-.51.58-.3,1.07-.7,1.47-1.19.41-.5.71-1.08.92-1.76s.29-1.41.25-2.18Z"/>
    <path class="cls-3" d="M1275.4,695.6c-7.76,2.41-15.59,4.48-23.48,6.23-7.9,1.75-15.65,3.07-23.3,3.95l.73-9.16c1.52-.16,3.06-.33,4.62-.52,1.55-.19,3.13-.42,4.72-.68l1.32-16.68c-1.53-.51-3.05-.98-4.56-1.43-1.51-.44-3-.86-4.48-1.26l.71-8.93c7.41,2.07,14.86,4.6,22.38,7.59,7.51,2.99,14.91,6.26,22.21,9.81l-.88,11.09ZM1246.11,694.16c3.52-.67,7.01-1.42,10.47-2.23,3.46-.82,6.88-1.73,10.26-2.74-3.18-1.46-6.42-2.88-9.71-4.26-3.29-1.38-6.62-2.67-10-3.86l-1.03,13.09Z"/>
    <path class="cls-3" d="M1256.8,755.22c1.4-1.24,2.53-2.63,3.41-4.19.87-1.55,1.45-3.2,1.73-4.95.27-1.72.21-3.4-.2-5.04-.41-1.65-1.17-3.16-2.29-4.53-1.11-1.38-2.6-2.57-4.45-3.56-1.85-.99-4.07-1.7-6.66-2.12-2.42-.39-4.65-.44-6.69-.15-2.04.29-3.84.88-5.4,1.78-1.56.89-2.84,2.09-3.83,3.59-1,1.5-1.66,3.28-1.99,5.31-.18,1.12-.26,2.21-.23,3.24.03,1.04.16,2.06.39,3.05.23,1,.56,1.96,1,2.89.44.93.98,1.87,1.6,2.82l-7.56.9c-1.27-2.27-2.15-4.68-2.63-7.22s-.49-5.26-.02-8.17c.51-3.14,1.51-5.91,2.99-8.31,1.49-2.39,3.37-4.35,5.67-5.86,2.29-1.51,4.94-2.54,7.93-3.08,2.99-.54,6.26-.52,9.81.05,2.55.41,4.86,1.05,6.94,1.9,2.08.86,3.92,1.9,5.51,3.11,1.59,1.22,2.95,2.58,4.07,4.09s2.01,3.12,2.65,4.84,1.03,3.51,1.19,5.39.07,3.78-.24,5.71c-.39,2.46-1.09,4.69-2.09,6.67-.99,1.99-2.3,3.68-3.92,5.1l-6.69-3.27Z"/>
    <path class="cls-3" d="M1248.02,806.88l3.02-12.38-37.15-9.07,2.13-8.71,37.15,9.07,3.03-12.41,7.37,1.8-8.17,33.49-7.37-1.8Z"/>
    <path class="cls-3" d="M1203.62,821.39l2.67-8.56,43.75,13.64-2.67,8.56-43.75-13.64Z"/>
    <path class="cls-3" d="M1227.71,888.98c-6.52-4.07-12.95-8.59-19.31-13.57-6.35-4.99-12.51-10.25-18.45-15.8l3.96-10.25c8.12-.08,16.21.17,24.28.75,8.06.58,15.86,1.57,23.41,2.97l-3.31,8.54c-2.95-.54-6-1.03-9.16-1.47-3.16-.44-6.35-.81-9.57-1.13-3.22-.31-6.45-.56-9.7-.75-3.24-.19-6.44-.31-9.57-.37,2.37,2.05,4.82,4.09,7.35,6.13,2.53,2.04,5.1,4.02,7.69,5.95s5.21,3.79,7.85,5.6,5.22,3.49,7.78,5.05l-3.24,8.36Z"/>
    <path class="cls-3" d="M1174.56,894.89l3.78-8.13,41.54,19.34-3.78,8.13-41.54-19.34Z"/>
    <path class="cls-3" d="M1184.93,957.67l6.1-11.18-33.58-18.3,4.29-7.87,33.58,18.3,6.11-11.21,6.65,3.63-16.5,30.27-6.65-3.63Z"/>
    <path class="cls-3" d="M1138.22,960.36l4.78-7.58,38.76,24.44-4.78,7.58-38.76-24.44Z"/>
    <path class="cls-3" d="M1143.27,1020.53l10.26-14.27-9.34-6.72-9.5,13.19-6.01-4.33,9.49-13.19-9.79-7.04-10.26,14.26-6.02-4.33,15.51-21.54,37.19,26.76-15.5,21.54-6.02-4.33Z"/>
    <path class="cls-3" d="M1108.67,1019.11c-1.9.56-3.67,1.35-5.29,2.36-1.62,1.01-3.01,2.22-4.19,3.61-.71.84-1.25,1.67-1.63,2.49-.37.82-.59,1.61-.64,2.38-.06.77.05,1.48.32,2.15s.72,1.26,1.35,1.78c.8.68,1.7,1.05,2.68,1.12s2.01-.06,3.09-.39c1.08-.33,2.22-.79,3.41-1.36,1.2-.58,2.44-1.15,3.72-1.72s2.59-1.08,3.93-1.54c1.34-.46,2.7-.73,4.08-.8,1.38-.07,2.77.1,4.17.53,1.39.43,2.78,1.22,4.17,2.38,1.56,1.31,2.74,2.78,3.51,4.4s1.17,3.31,1.18,5.08c.01,1.77-.35,3.56-1.11,5.39-.75,1.82-1.87,3.61-3.33,5.36-1.48,1.76-3.05,3.19-4.7,4.29-1.65,1.1-3.44,1.96-5.35,2.57l-4.11-6.24c1.7-.56,3.26-1.28,4.66-2.16s2.63-1.96,3.69-3.22c.6-.71,1.07-1.44,1.41-2.2.34-.76.53-1.49.58-2.2.05-.71-.06-1.38-.33-2.02-.26-.64-.68-1.2-1.26-1.69-.79-.67-1.65-1.01-2.59-1.06s-1.94.11-3.02.44-2.21.79-3.39,1.39c-1.19.59-2.42,1.18-3.69,1.75s-2.59,1.09-3.94,1.54c-1.36.44-2.73.71-4.12.77s-2.8-.12-4.22-.57c-1.42-.45-2.84-1.27-4.28-2.47-1.6-1.34-2.78-2.85-3.54-4.53-.76-1.68-1.13-3.44-1.12-5.28.01-1.84.41-3.71,1.19-5.61s1.91-3.73,3.39-5.5c1.66-1.98,3.41-3.57,5.24-4.77,1.83-1.2,3.77-2.07,5.8-2.62l4.29,6.17Z"/>
  </g>
  <path class="cls-2" d="M202.6,171.79l30.81,30.81c228.03-212.1,583-212.1,811.03,0l30.81-30.81c-245.05-229.06-627.6-229.07-872.65,0Z"/>
  <path class="cls-9" d="M1044.45,1075.25c-228.03,212.1-583,212.1-811.03,0l-30.81,30.81c245.05,229.06,627.6,229.07,872.65,0l-30.81-30.81Z"/>
  <path class="cls-9" d="M710.84,134.07c97.51,0,191.73,40.77,258.48,111.85l21.38,22.77-109.69-43.64c-2.45-.98-5.07-1.48-7.71-1.48h-132.43c-3.36,0-6.67.81-9.65,2.37l-152.62,79.69,16.15-55.37c1.84-6.3.6-13.1-3.34-18.35-3.94-5.25-10.12-8.34-16.68-8.34h-96.9l113.35-89.5h119.65M710.84,113.21h-126.89l-166.18,131.21h156.96l-24.19,82.93c-1.7,5.86,2.89,11.05,8.26,11.05,1.32,0,2.68-.31,4.01-1l178.06-92.98h132.43l196.73,78.27-85.51-91.05c-70.96-75.57-170.02-118.43-273.68-118.43h0Z"/>
  <path class="cls-6" d="M921.39,286l134.2,53.4,59.82,103.63c48.75,84.45,60.54,186.42,32.36,279.76l-9.03,29.92-17.03-116.8c-.38-2.61-1.26-5.13-2.58-7.42l-66.21-114.67c-1.68-2.91-4.04-5.37-6.87-7.17l-145.31-92.35,56.01-13.69c6.38-1.56,11.65-6.03,14.23-12.07,2.58-6.04,2.16-12.94-1.12-18.62l-48.46-83.93M873.3,244.42l78.48,135.94-83.9,20.51c-7.37,1.81-9,11.57-2.57,15.64l169.55,107.75,66.21,114.67,30.55,209.52,36.12-119.62c29.96-99.23,17.56-206.44-34.26-296.22l-63.44-109.91-196.73-78.27h0Z"/>
  <path class="cls-7" d="M1089.1,701.36l20.84,142.92-59.84,103.62c-48.76,84.44-131.17,145.64-226.1,167.9l-30.41,7.13,92.64-73.14c2.07-1.64,3.82-3.65,5.14-5.94l66.21-114.67c1.69-2.93,2.64-6.25,2.78-9.62l7.3-171.97,39.87,41.68c3.96,4.14,9.41,6.44,15.07,6.44.83,0,1.66-.05,2.49-.15,6.52-.78,12.29-4.59,15.57-10.28l48.45-83.92M1101.07,638.92l-78.48,135.94-59.71-62.42c-1.76-1.85-3.98-2.67-6.16-2.67-4.31,0-8.47,3.24-8.68,8.27l-8.52,200.69v.03l-66.21,114.67-166.18,131.21,121.64-28.53c100.92-23.67,187.56-88.01,239.4-177.77l63.46-109.89-30.55-209.52h0Z"/>
  <path class="cls-5" d="M712.46,972.22l-16.15,55.36c-1.84,6.3-.6,13.1,3.34,18.35s10.12,8.34,16.68,8.34h96.9l-113.35,89.5h-119.63c-97.52,0-191.74-40.78-258.5-111.87l-21.38-22.77,109.68,43.66c2.45.98,5.07,1.48,7.71,1.48h132.43c3.36,0,6.67-.81,9.65-2.37l152.62-79.69M732.27,939.44c-1.32,0-2.68.31-4.01,1l-178.06,92.98h-132.43l-196.73-78.31,85.51,91.07c70.97,75.58,170.03,118.45,273.7,118.45h126.88l166.18-131.21h-156.97l24.19-82.93c1.7-5.86-2.89-11.05-8.26-11.05h0Z"/>
  <path class="cls-8" d="M152.33,525.13l17.03,116.8c.38,2.61,1.26,5.13,2.58,7.42l66.21,114.67c1.68,2.91,4.04,5.37,6.88,7.17l145.35,92.34-56.04,13.7c-6.38,1.56-11.65,6.03-14.23,12.07-2.58,6.04-2.16,12.94,1.12,18.62l48.45,83.92-134.2-53.42-59.81-103.6c-48.76-84.45-60.56-186.43-32.37-279.78l9.03-29.91M159.45,429.4l-36.11,119.61c-29.96,99.24-17.56,206.46,34.27,296.24l63.43,109.87,196.73,78.31-78.48-135.94,83.91-20.51c7.4-1.81,9-11.57,2.57-15.68l-169.55-107.71-66.21-114.67-30.55-209.52h0Z"/>
  <path class="cls-3" d="M497.5,154.89l-92.66,73.16c-2.07,1.64-3.82,3.65-5.14,5.94l-66.21,114.67c-1.69,2.93-2.64,6.25-2.78,9.62l-7.3,171.97-39.87-41.68c-3.96-4.14-9.41-6.44-15.07-6.44-.83,0-1.66.05-2.49.15-6.52.78-12.29,4.59-15.57,10.28l-48.45,83.92-20.84-142.92,59.83-103.61c48.77-84.46,131.2-145.67,226.15-167.93l30.39-7.12M583.94,113.21l-121.6,28.5c-100.94,23.66-187.61,88.01-239.45,177.8l-63.45,109.88,30.55,209.52,78.48-135.94,59.71,62.42c1.78,1.83,4,2.66,6.18,2.66,4.31,0,8.46-3.22,8.66-8.25l8.51-200.69v-.03l66.21-114.67,166.18-131.21h0Z"/>
  <path class="cls-4" d="M675.22,375.04v59.09c13.07,1.81,24.99,5.25,35.73,10.36,10.74,5.11,20.05,11.68,27.94,19.74,10.18,10.74,17.97,24.02,23.36,39.87,5.39,15.85,8.13,34.1,8.34,54.67h-49.43c0-11.99-1.49-23.04-4.45-33.16-2.95-10.11-7.19-18.87-12.76-26.21-5.73-7.16-12.72-12.79-20.96-16.93-8.24-4.1-17.62-6.15-28.19-6.15-11.47,0-21.45,1.6-29.96,4.83-8.51,3.2-15.43,7.79-20.82,13.69-5,5.35-8.83,11.78-11.4,19.19-2.61,7.44-3.89,15.71-3.89,24.85s1.43,16.93,4.28,23.91c2.89,6.99,7.44,13.35,13.69,19.08,6.08,5.74,14.01,11.05,23.77,15.99,9.77,4.9,21.55,9.7,35.31,14.35,16.86,5.56,31.98,11.75,45.43,18.53,13.42,6.81,24.78,14.77,34.1,23.91,9.32,9.14,16.44,19.71,21.38,31.7,4.9,11.99,7.37,25.96,7.37,41.92s-2.47,29.54-7.37,41.88c-4.94,12.37-11.89,22.94-20.82,31.7-8.97,8.97-19.85,16.13-32.64,21.51-12.83,5.35-27.01,8.86-42.58,10.46v51.58h-40.04v-51.3c-13.97-1.46-27.35-4.66-40.14-9.7-12.83-5-24.16-12.34-33.99-22-9.84-9.49-17.73-21.51-23.63-36.01-5.91-14.49-8.86-31.87-8.86-52.1h49.7c0,15.05,2.22,27.53,6.71,37.47,4.48,9.94,10.29,17.87,17.45,23.77,6.99,5.91,14.95,10.11,23.91,12.62,8.97,2.5,18,3.75,27.15,3.75,11.64,0,22.11-1.42,31.42-4.28,9.32-2.88,17.17-7.09,23.64-12.65,6.43-5.35,11.4-11.96,14.91-19.74,3.48-7.79,5.25-16.58,5.25-26.45,0-8.06-1.39-15.54-4.17-22.42-2.78-6.88-7.23-13.31-13.31-19.22-6.08-5.91-13.97-11.4-23.63-16.51-9.66-5.11-21.13-9.8-34.38-14.11-16.65-5.18-31.7-11.19-45.12-18-13.45-6.78-24.92-14.95-34.41-24.43-9.66-9.31-17.1-20.06-22.28-32.22-5.21-12.2-7.79-26.24-7.79-42.2,0-15.02,2.26-28.64,6.85-40.81,4.55-12.2,11.05-22.84,19.46-31.98,8.24-8.97,18.32-16.2,30.24-21.76,11.89-5.56,25.1-9.21,39.59-11.02v-59.09h40.04M696.07,354.19h-81.75v62.54c-9.78,2.34-19,5.52-27.57,9.53-14.37,6.7-26.74,15.64-36.76,26.54-10.23,11.11-18.19,24.17-23.64,38.79-5.41,14.34-8.16,30.54-8.16,48.1,0,18.74,3.18,35.7,9.46,50.39,6.21,14.59,15.25,27.69,26.84,38.9,11.04,11.01,24.38,20.49,39.64,28.18,14.34,7.28,30.57,13.77,48.17,19.25,12.08,3.94,22.49,8.2,30.96,12.68,7.91,4.19,14.26,8.57,18.85,13.03,3.96,3.85,6.83,7.91,8.51,12.08,1.78,4.41,2.65,9.19,2.65,14.6,0,6.9-1.12,12.77-3.44,17.95-2.2,4.88-5.22,8.9-9.21,12.22l-.13.11-.13.11c-4.3,3.7-9.61,6.5-16.21,8.54-7.22,2.21-15.74,3.34-25.25,3.34-7.19,0-14.44-1-21.54-2.99-6.08-1.7-11.33-4.46-16.05-8.45l-.1-.08-.1-.08c-4.63-3.82-8.57-9.29-11.71-16.26-3.23-7.16-4.86-16.88-4.86-28.89v-20.85h-91.41v20.85c0,22.86,3.5,43.04,10.41,59.98,6.98,17.12,16.54,31.62,28.41,43.09,11.8,11.57,25.58,20.48,40.95,26.48,8.61,3.39,17.61,6.09,26.87,8.06v54.36h81.75v-54.56c10.48-2.16,20.43-5.2,29.76-9.09,15.28-6.44,28.48-15.16,39.29-25.95,10.96-10.77,19.54-23.81,25.51-38.78,5.88-14.8,8.85-31.48,8.85-49.61s-3-35.33-8.92-49.81c-6.01-14.61-14.78-27.61-26.07-38.69-10.77-10.57-23.98-19.86-39.26-27.62-14.47-7.29-30.71-13.92-48.34-19.74-12.6-4.27-23.59-8.72-32.5-13.19-7.9-3.99-14.25-8.22-18.82-12.52l-.11-.1-.11-.1c-4-3.66-6.78-7.48-8.51-11.67-1.78-4.36-2.7-9.75-2.7-15.95,0-6.76.91-12.81,2.72-17.95,1.62-4.67,3.95-8.63,6.95-11.84l.09-.1.09-.1c3.21-3.52,7.37-6.21,12.74-8.22,6.14-2.33,13.73-3.5,22.63-3.5,7.35,0,13.53,1.3,18.89,3.97,5.45,2.73,9.98,6.37,13.8,11.08,3.88,5.19,6.98,11.66,9.19,19.23,2.4,8.2,3.61,17.39,3.61,27.31v20.85h91.35l-.21-21.07c-.23-22.82-3.41-43.41-9.45-61.17-6.33-18.63-15.74-34.61-27.97-47.51l-.11-.12-.11-.12c-9.55-9.77-20.96-17.84-33.89-23.99-7.45-3.54-15.42-6.43-23.84-8.62v-62.84h0Z"/>
</svg>