<?xml version="1.0" encoding="UTF-8"?>
<svg id="Layer_1" data-name="Layer 1" xmlns="http://www.w3.org/2000/svg" viewBox="0 0 1280.37 1277.85">
  <defs>
    <style>
      .cls-1 {
        fill: #fff;
      }
    </style>
  </defs>
  <path class="cls-1" d="M1138,430l-63.47-109.9c-.07-.1-.1-.17-.17-.28-.17-.24-.35-.45-.52-.66,0,0-.03,0-.03-.03l-85.5-91.07c-71.67-76.29-172.78-120.05-277.47-120.05h-126.9c-.38,0-.8.03-1.18.14l-.52.14-121.06,28.36c-101.94,23.88-190.44,89.57-242.78,180.25l-63.47,109.9c-.07.14-.14.24-.21.38-.07.17-.17.42-.24.63-.04.07-.04.14-.07.24l-36.08,119.46c-30.24,100.21-17.59,209.66,34.76,300.34l63.43,109.87c.07.1.1.17.17.28.17.24.35.45.52.66,0,0,.03,0,.03.03l85.5,91.07c71.67,76.33,172.85,120.09,277.51,120.09h126.87c.59,0,1.18-.1,1.74-.28l121.1-28.4c101.91-23.91,190.37-89.61,242.75-180.25l63.43-109.87c.07-.14.14-.24.21-.38.07-.21.17-.42.24-.63.03-.07.03-.14.07-.24l36.08-119.5c30.24-100.21,17.59-209.66-34.72-300.31ZM585.74,118.44h125.09c101.81,0,200.17,42.58,269.89,116.79l69.48,74-175.01-69.62c-.63-.24-1.29-.38-1.91-.38h-132.43c-.83,0-1.67.21-2.4.59l-178.06,92.98c-1.81.94-3.23.03-3.75-.38-.52-.42-1.67-1.63-1.11-3.58l24.19-82.93c.45-1.56.14-3.27-.83-4.59-.97-1.32-2.54-2.09-4.17-2.09h-141.92l152.93-120.78ZM590.47,824.43c-12.83-5.01-24.16-12.34-33.99-22-9.84-9.49-17.73-21.52-23.64-36.01-5.91-14.49-8.86-31.87-8.86-52.1h49.7c0,15.05,2.22,27.53,6.71,37.47,4.48,9.94,10.29,17.87,17.45,23.77,6.99,5.91,14.95,10.11,23.91,12.62,8.97,2.5,18,3.75,27.15,3.75,11.64,0,22.11-1.42,31.42-4.28,9.31-2.88,17.17-7.09,23.64-12.65,6.43-5.35,11.4-11.96,14.91-19.74,3.48-7.79,5.25-16.58,5.25-26.45,0-8.06-1.39-15.54-4.17-22.42-2.78-6.88-7.23-13.31-13.31-19.22-6.08-5.91-13.97-11.4-23.64-16.51-9.66-5.11-21.13-9.8-34.37-14.11-16.65-5.18-31.7-11.19-45.12-18-13.45-6.78-24.92-14.95-34.41-24.43-9.66-9.32-17.1-20.06-22.28-32.22-5.21-12.2-7.79-26.24-7.79-42.2,0-15.02,2.26-28.64,6.85-40.81,4.55-12.2,11.05-22.84,19.46-31.98,8.24-8.97,18.32-16.2,30.24-21.76,11.89-5.56,25.09-9.21,39.59-11.02v-59.09h40.04v59.09c13.07,1.81,24.99,5.25,35.73,10.36,10.74,5.11,20.06,11.68,27.95,19.74,10.18,10.74,17.97,24.02,23.36,39.87,5.39,15.85,8.13,34.1,8.34,54.67h-49.43c0-11.99-1.49-23.04-4.45-33.16-2.95-10.11-7.19-18.87-12.76-26.21-5.73-7.16-12.72-12.79-20.96-16.93-8.24-4.1-17.62-6.15-28.19-6.15-11.47,0-21.45,1.6-29.96,4.83-8.52,3.2-15.43,7.79-20.82,13.69-5,5.35-8.83,11.78-11.4,19.19-2.61,7.44-3.89,15.71-3.89,24.85s1.42,16.93,4.28,23.91c2.89,6.99,7.44,13.35,13.69,19.08,6.08,5.74,14.01,11.05,23.77,15.99,9.77,4.9,21.55,9.7,35.31,14.35,16.86,5.56,31.98,11.75,45.43,18.53,13.42,6.81,24.78,14.77,34.1,23.91,9.32,9.14,16.44,19.71,21.38,31.7,4.9,11.99,7.37,25.96,7.37,41.92s-2.47,29.54-7.37,41.88c-4.94,12.37-11.89,22.94-20.82,31.7-8.97,8.97-19.85,16.13-32.64,21.52-12.83,5.35-27.01,8.86-42.58,10.46v51.58h-40.04v-51.3c-13.97-1.46-27.35-4.66-40.14-9.7ZM227.42,322.12c50.92-88.22,136.98-152.1,236.11-175.32l98.75-23.15-147.75,116.68c-.28.21-.49.45-.69.69-.17.17-.31.38-.45.59-.03.07-.1.14-.14.21l-.17.35-66.04,114.32c-.42.73-.66,1.56-.69,2.43l-8.52,200.69c-.07,2.02-1.53,2.78-2.16,3.02-.66.24-2.29.63-3.72-.83l-59.71-62.42c-1.11-1.18-2.75-1.77-4.38-1.56-1.63.21-3.06,1.15-3.89,2.57l-70.98,122.94-28.12-192.87,62.56-108.34ZM162.11,842.65c-50.92-88.18-63.22-194.64-33.78-292.14l29.34-97.18,27.18,186.37c.07.56.24,1.08.49,1.53.1.24.24.49.38.7l65.97,114.28c.42.73,1.01,1.36,1.74,1.81l169.51,107.68c1.74,1.11,1.67,2.82,1.56,3.48-.1.66-.56,2.26-2.57,2.75l-83.91,20.51c-1.56.42-2.88,1.53-3.55,3.02-.63,1.49-.52,3.23.28,4.66l70.97,122.94-181.09-72.09-62.53-108.3ZM705.3,1159.43h-125.06c-101.81,0-200.2-42.58-269.93-116.82l-69.45-73.96,174.97,69.62c.63.28,1.25.38,1.91.38h132.43c.83,0,1.67-.21,2.4-.59l178.06-92.98c1.84-.94,3.23-.03,3.75.38.52.42,1.67,1.63,1.11,3.58l-24.19,82.93c-.45,1.56-.14,3.27.83,4.59.97,1.32,2.54,2.09,4.17,2.09h141.92l-152.93,120.78ZM1063.66,955.71c-50.92,88.18-136.98,152.06-236.07,175.32l-98.82,23.18,147.75-116.68c.24-.21.49-.42.7-.7.17-.17.31-.38.45-.59.14-.17.24-.35.31-.56l66.04-114.32c.42-.73.66-1.56.69-2.43l8.52-200.69c.07-2.02,1.56-2.78,2.19-3.02.28-.1.73-.24,1.29-.24.73,0,1.6.24,2.4,1.08l59.71,62.42c1.11,1.18,2.75,1.74,4.38,1.56,1.63-.21,3.06-1.15,3.89-2.57l70.98-122.94,28.12,192.87-62.53,108.31ZM1162.72,727.32l-29.34,97.18-27.18-186.34c-.03-.28-.1-.56-.17-.83-.1-.24-.17-.49-.31-.7-.1-.24-.24-.49-.38-.69l-65.97-114.28c-.42-.73-1.01-1.36-1.74-1.81l-169.55-107.75c-1.7-1.08-1.63-2.75-1.53-3.41s.59-2.26,2.57-2.75l83.91-20.51c1.56-.38,2.88-1.53,3.54-3.02.63-1.49.56-3.23-.28-4.66l-70.98-122.94,181.09,72.05,62.56,108.34c32.71,56.62,49.46,120.85,49.46,185.36,0,35.9-5.18,71.88-15.71,106.74Z"/>
  <path class="cls-1" d="M171.79,202.6c-229.06,245.04-229.05,627.6,0,872.65l30.81-30.81c-212.1-228.03-212.11-583,0-811.03l-30.81-30.81Z"/>
  <g>
    <path class="cls-1" d="M1091.47,238.34c.23,1.97.71,3.84,1.44,5.61.72,1.77,1.67,3.35,2.86,4.74.71.83,1.43,1.51,2.17,2.02.75.51,1.49.86,2.24,1.04.75.18,1.47.2,2.17.04.69-.16,1.36-.5,1.98-1.03.8-.68,1.32-1.5,1.55-2.46.23-.95.28-1.99.14-3.11-.15-1.12-.4-2.32-.77-3.6-.37-1.28-.73-2.6-1.07-3.95-.35-1.36-.63-2.74-.86-4.13-.22-1.4-.26-2.79-.1-4.16.16-1.37.56-2.71,1.22-4.02s1.68-2.54,3.05-3.71c1.56-1.32,3.2-2.23,4.93-2.72,1.72-.49,3.46-.59,5.21-.31,1.74.28,3.46.95,5.12,2,1.67,1.06,3.24,2.45,4.72,4.19,1.49,1.76,2.63,3.54,3.44,5.36.81,1.82,1.35,3.72,1.63,5.71l-6.84,3c-.26-1.78-.71-3.43-1.34-4.96-.63-1.52-1.49-2.92-2.55-4.19-.6-.71-1.24-1.29-1.93-1.75-.69-.47-1.37-.78-2.06-.94-.69-.16-1.37-.17-2.04-.02-.68.15-1.3.47-1.88.95-.79.67-1.28,1.46-1.47,2.37-.2.91-.22,1.93-.07,3.05.14,1.12.41,2.31.79,3.58.38,1.27.75,2.58,1.11,3.93.36,1.35.64,2.73.86,4.15.21,1.41.24,2.81.07,4.2-.16,1.38-.59,2.74-1.27,4.06-.68,1.33-1.73,2.59-3.16,3.8-1.6,1.35-3.28,2.26-5.06,2.73-1.79.47-3.59.54-5.4.22-1.81-.33-3.59-1.04-5.34-2.12-1.74-1.09-3.35-2.52-4.85-4.27-1.67-1.97-2.94-3.96-3.82-5.97-.87-2.01-1.41-4.06-1.6-6.15l6.81-3.19Z"/>
    <path class="cls-1" d="M1158.11,277.83l-10.33-14.22-9.31,6.77,9.56,13.15-6,4.36-9.55-13.15-9.76,7.09,10.33,14.22-6,4.36-15.6-21.47,37.06-26.94,15.61,21.47-6,4.36Z"/>
    <path class="cls-1" d="M1175.85,290.98c.98,1.39,1.92,2.76,2.82,4.11s1.72,2.63,2.46,3.84c1.83,2.99,3.18,5.83,4.06,8.54s1.28,5.2,1.19,7.48c-.09,2.29-.64,4.32-1.64,6.11-1.01,1.79-2.49,3.29-4.45,4.49-1.26.77-2.55,1.32-3.86,1.64-1.3.32-2.62.43-3.95.34s-2.66-.39-3.99-.9-2.66-1.2-3.98-2.08c-1.48,2.9-3.1,5.88-4.88,8.95-1.77,3.07-3.69,6.18-5.74,9.33l-5.13-8.36c1.57-2.45,3.13-5.06,4.68-7.82s3.03-5.55,4.46-8.37c-.49-.59-.96-1.22-1.41-1.88-.45-.67-.92-1.4-1.4-2.19l-13.63,8.36-4.69-7.64,39.07-23.95ZM1161.32,310.4c.2.33.4.65.59.96.19.31.39.63.59.96.94,1.54,1.94,2.81,2.99,3.82,1.05,1.01,2.11,1.74,3.19,2.21,1.07.46,2.15.65,3.22.57s2.12-.43,3.15-1.06c.99-.61,1.76-1.37,2.3-2.3.54-.92.83-1.97.89-3.14s-.14-2.44-.59-3.84c-.45-1.39-1.15-2.85-2.09-4.39-.19-.31-.37-.62-.56-.92-.18-.3-.37-.61-.56-.92l-13.12,8.04Z"/>
    <path class="cls-1" d="M1217.92,366.83c-7.39,2.11-15.06,3.86-23.02,5.23-7.96,1.38-15.99,2.41-24.09,3.1l-4.96-9.82c5.38-6.08,10.99-11.92,16.83-17.51,5.84-5.59,11.81-10.72,17.9-15.38l4.13,8.18c-2.38,1.83-4.79,3.76-7.24,5.81-2.44,2.05-4.86,4.16-7.26,6.34-2.39,2.18-4.75,4.41-7.05,6.7-2.31,2.29-4.55,4.57-6.69,6.86,3.1-.38,6.26-.83,9.47-1.34,3.21-.51,6.4-1.08,9.57-1.72,3.17-.63,6.31-1.32,9.41-2.07,3.11-.75,6.1-1.54,8.97-2.39l4.03,8Z"/>
    <path class="cls-1" d="M1186.69,410.23l-3.5-8.25,42.2-17.86,3.5,8.25-42.2,17.86Z"/>
    <path class="cls-1" d="M1237.21,445c.64-1.75.98-3.52,1-5.3.03-1.78-.25-3.51-.83-5.17-.57-1.65-1.43-3.09-2.57-4.35-1.14-1.25-2.53-2.22-4.17-2.9-1.64-.68-3.5-1.02-5.61-1.02-2.1,0-4.4.44-6.87,1.3-2.31.8-4.3,1.82-5.96,3.04-1.66,1.23-2.96,2.6-3.91,4.13-.94,1.52-1.5,3.18-1.66,4.98-.16,1.8.1,3.67.78,5.62.37,1.08.82,2.06,1.34,2.97.52.9,1.12,1.73,1.79,2.5.68.77,1.43,1.46,2.25,2.07.83.61,1.74,1.18,2.76,1.72l-6.23,4.39c-2.19-1.4-4.11-3.1-5.74-5.11-1.64-2.01-2.93-4.4-3.9-7.18-1.05-3.01-1.48-5.92-1.31-8.73.17-2.81.9-5.43,2.2-7.85s3.14-4.58,5.52-6.48c2.38-1.9,5.26-3.44,8.65-4.62,2.44-.85,4.78-1.39,7.02-1.62,2.24-.23,4.34-.19,6.32.12,1.98.32,3.82.87,5.53,1.66,1.71.79,3.25,1.79,4.63,3,1.37,1.2,2.57,2.6,3.6,4.17,1.03,1.58,1.87,3.29,2.5,5.14.82,2.35,1.26,4.64,1.33,6.86s-.28,4.33-1.03,6.35l-7.44.3Z"/>
    <path class="cls-1" d="M1253.2,490.82l-4.46-17-11.14,2.92,4.13,15.72-7.18,1.88-4.12-15.72-11.67,3.06,4.46,17-7.18,1.88-6.73-25.67,44.32-11.63,6.73,25.67-7.17,1.88Z"/>
    <path class="cls-1" d="M1230.02,516.37c-.77,1.83-1.29,3.69-1.54,5.58s-.21,3.74.12,5.54c.2,1.08.5,2.02.88,2.83.39.81.87,1.49,1.43,2.02.56.53,1.17.9,1.86,1.12s1.43.24,2.23.1c1.03-.19,1.89-.64,2.57-1.36.68-.72,1.23-1.6,1.66-2.64.43-1.04.8-2.21,1.12-3.5s.67-2.61,1.04-3.96.81-2.69,1.31-4.02c.5-1.33,1.15-2.55,1.98-3.66s1.85-2.07,3.06-2.88,2.72-1.37,4.49-1.7c2.01-.37,3.88-.34,5.63.09,1.74.43,3.3,1.21,4.68,2.32,1.37,1.11,2.53,2.54,3.45,4.29s1.59,3.74,2,5.98c.42,2.26.53,4.39.33,6.36-.2,1.97-.68,3.89-1.43,5.76l-7.43-.8c.65-1.68,1.08-3.33,1.29-4.97s.17-3.27-.14-4.9c-.16-.91-.43-1.74-.8-2.48s-.81-1.36-1.32-1.84c-.52-.49-1.11-.83-1.77-1.04s-1.36-.24-2.1-.11c-1.01.19-1.83.63-2.46,1.33s-1.15,1.56-1.58,2.61c-.43,1.04-.79,2.21-1.09,3.5s-.62,2.61-.99,3.96c-.36,1.35-.8,2.69-1.32,4.02-.52,1.33-1.19,2.56-2.02,3.68-.83,1.12-1.87,2.08-3.12,2.89s-2.79,1.39-4.63,1.73c-2.05.38-3.97.33-5.75-.15-1.79-.48-3.38-1.31-4.79-2.49-1.41-1.18-2.6-2.68-3.57-4.5-.96-1.81-1.66-3.85-2.08-6.11-.47-2.54-.58-4.9-.34-7.08.24-2.18.79-4.23,1.67-6.14l7.49.62Z"/>
    <path class="cls-1" d="M1231.07,623.17l5.34-6.39c-1.8-1.84-3.24-3.99-4.31-6.45-1.07-2.46-1.69-5.26-1.86-8.39-.13-2.4.05-4.58.54-6.54.48-1.95,1.24-3.64,2.26-5.05,1.02-1.41,2.29-2.52,3.8-3.32,1.52-.8,3.24-1.26,5.18-1.36,1.61-.08,3.08.06,4.4.44s2.53.93,3.64,1.64c1.11.71,2.13,1.56,3.08,2.53.95.97,1.81,1.98,2.61,3.04.79-.84,1.62-1.63,2.48-2.38s1.77-1.41,2.74-1.97c.96-.57,1.96-1.04,3.01-1.39,1.05-.36,2.16-.57,3.34-.63,1.83-.1,3.51.16,5.05.77,1.53.62,2.88,1.53,4.02,2.75,1.15,1.22,2.06,2.72,2.75,4.48.69,1.77,1.09,3.76,1.22,5.97.11,2.06-.05,3.94-.47,5.64-.43,1.7-1.09,3.18-1.98,4.42s-2,2.23-3.33,2.96c-1.32.73-2.84,1.14-4.53,1.23-1.65.09-3.16-.12-4.53-.64-1.38-.52-2.63-1.23-3.78-2.14s-2.21-1.94-3.16-3.12c-.96-1.17-1.85-2.37-2.67-3.6l-8.04,9.64c1.34.42,2.74.74,4.19.97,1.45.22,2.95.29,4.47.21l.43,7.99c-2.51.07-4.97-.13-7.37-.62-2.39-.48-4.64-1.26-6.74-2.33l-5.46,6.56-6.31-4.92ZM1251.09,598.86c-.57-.7-1.15-1.34-1.73-1.91-.58-.57-1.18-1.06-1.81-1.47s-1.29-.71-1.99-.91c-.7-.2-1.45-.27-2.24-.23-.96.05-1.84.28-2.63.69-.79.41-1.45.98-2.01,1.71-.55.73-.96,1.6-1.21,2.62-.26,1.01-.35,2.16-.29,3.42.1,1.72.47,3.28,1.13,4.68.66,1.41,1.54,2.64,2.65,3.7l10.12-12.3ZM1273.49,600.9c-.04-.82-.22-1.55-.52-2.22s-.7-1.23-1.19-1.7-1.06-.82-1.7-1.05c-.65-.23-1.35-.33-2.1-.29-.71.04-1.38.18-2.02.42-.64.24-1.27.55-1.87.94s-1.2.85-1.8,1.39c-.59.54-1.18,1.14-1.77,1.79.72,1.04,1.41,1.96,2.07,2.76s1.31,1.48,1.97,2.02c.65.55,1.34.96,2.05,1.23.71.27,1.5.39,2.36.34.69-.04,1.32-.21,1.89-.51.58-.3,1.07-.7,1.47-1.19.41-.5.71-1.08.92-1.76s.29-1.41.25-2.18Z"/>
    <path class="cls-1" d="M1275.4,695.61c-7.76,2.41-15.59,4.48-23.48,6.23-7.9,1.75-15.65,3.07-23.3,3.95l.73-9.16c1.52-.16,3.06-.33,4.62-.52,1.55-.19,3.13-.42,4.72-.68l1.32-16.68c-1.53-.51-3.05-.98-4.56-1.43-1.51-.44-3-.86-4.48-1.26l.71-8.93c7.41,2.07,14.86,4.6,22.38,7.59,7.51,2.99,14.91,6.26,22.2,9.81l-.88,11.09ZM1246.11,694.16c3.52-.67,7.01-1.42,10.47-2.23,3.46-.82,6.88-1.73,10.26-2.74-3.18-1.46-6.42-2.88-9.71-4.26-3.29-1.38-6.62-2.67-10-3.86l-1.03,13.09Z"/>
    <path class="cls-1" d="M1256.8,755.22c1.39-1.23,2.53-2.63,3.4-4.19.88-1.56,1.45-3.21,1.73-4.95.28-1.72.21-3.4-.2-5.04-.41-1.65-1.17-3.16-2.29-4.53-1.12-1.38-2.6-2.57-4.45-3.56-1.85-1-4.08-1.7-6.67-2.12-2.42-.39-4.65-.44-6.69-.15-2.04.29-3.84.88-5.4,1.78-1.56.89-2.84,2.09-3.84,3.59-.99,1.5-1.66,3.28-1.98,5.31-.18,1.13-.26,2.21-.23,3.24s.16,2.06.39,3.05c.23,1,.56,1.96,1,2.89.43.93.97,1.87,1.6,2.82l-7.56.9c-1.26-2.27-2.14-4.68-2.62-7.22s-.49-5.26-.02-8.17c.51-3.14,1.51-5.91,2.99-8.31,1.48-2.39,3.37-4.35,5.66-5.86,2.29-1.51,4.94-2.54,7.93-3.08,2.99-.54,6.27-.52,9.81.05,2.55.41,4.86,1.05,6.94,1.9,2.08.86,3.92,1.9,5.51,3.11s2.95,2.58,4.07,4.09c1.13,1.51,2.02,3.12,2.65,4.84.63,1.71,1.03,3.51,1.18,5.38.16,1.88.08,3.78-.23,5.71-.4,2.46-1.1,4.68-2.09,6.67-1,1.99-2.31,3.68-3.93,5.1l-6.69-3.27Z"/>
    <path class="cls-1" d="M1248.02,806.88l3.02-12.38-37.15-9.07,2.13-8.71,37.15,9.07,3.03-12.41,7.37,1.8-8.17,33.49-7.37-1.8Z"/>
    <path class="cls-1" d="M1203.61,821.4l2.67-8.56,43.74,13.64-2.67,8.56-43.75-13.64Z"/>
    <path class="cls-1" d="M1227.71,888.98c-6.52-4.07-12.95-8.59-19.31-13.57-6.35-4.99-12.51-10.25-18.45-15.8l3.96-10.25c8.12-.08,16.21.17,24.28.75,8.06.58,15.86,1.57,23.41,2.97l-3.31,8.54c-2.95-.54-6-1.03-9.16-1.47-3.16-.44-6.35-.81-9.57-1.13-3.22-.31-6.45-.56-9.7-.75-3.24-.19-6.44-.31-9.57-.37,2.37,2.05,4.82,4.09,7.35,6.13,2.53,2.04,5.1,4.02,7.69,5.95,2.59,1.93,5.21,3.79,7.85,5.6,2.63,1.8,5.22,3.49,7.78,5.05l-3.24,8.36Z"/>
    <path class="cls-1" d="M1174.56,894.89l3.79-8.13,41.54,19.34-3.79,8.13-41.54-19.34Z"/>
    <path class="cls-1" d="M1184.93,957.67l6.1-11.18-33.58-18.3,4.29-7.87,33.58,18.3,6.11-11.21,6.65,3.63-16.5,30.27-6.65-3.63Z"/>
    <path class="cls-1" d="M1138.22,960.37l4.78-7.58,38.76,24.44-4.78,7.58-38.76-24.44Z"/>
    <path class="cls-1" d="M1143.26,1020.54l10.26-14.26-9.34-6.73-9.5,13.19-6.01-4.33,9.49-13.19-9.79-7.04-10.26,14.26-6.02-4.33,15.51-21.54,37.19,26.76-15.5,21.54-6.02-4.33Z"/>
    <path class="cls-1" d="M1108.74,1019.02c-1.91.56-3.67,1.35-5.29,2.36-1.62,1.01-3.02,2.22-4.2,3.61-.71.84-1.24,1.67-1.62,2.49-.38.82-.6,1.61-.65,2.38-.05.77.05,1.48.33,2.15.27.66.72,1.26,1.34,1.78.81.68,1.7,1.05,2.69,1.11.98.07,2.01-.06,3.09-.39,1.08-.33,2.21-.79,3.41-1.36s2.44-1.15,3.72-1.72,2.59-1.09,3.92-1.55c1.34-.46,2.7-.73,4.09-.8,1.38-.08,2.77.1,4.17.53,1.39.43,2.78,1.22,4.17,2.38,1.56,1.31,2.73,2.78,3.5,4.4s1.17,3.32,1.19,5.08-.35,3.56-1.11,5.39c-.75,1.82-1.87,3.6-3.33,5.35-1.48,1.77-3.05,3.2-4.7,4.3-1.66,1.1-3.44,1.96-5.36,2.57l-4.11-6.23c1.71-.56,3.26-1.29,4.66-2.17s2.63-1.96,3.69-3.22c.6-.71,1.07-1.44,1.41-2.2.34-.75.53-1.49.58-2.19s-.06-1.38-.33-2.02c-.26-.64-.68-1.2-1.26-1.69-.79-.67-1.65-1.01-2.59-1.06s-1.94.11-3.02.44-2.21.79-3.39,1.39c-1.19.59-2.42,1.18-3.69,1.76s-2.59,1.09-3.94,1.54-2.73.71-4.12.78c-1.39.07-2.8-.12-4.22-.57-1.42-.45-2.84-1.27-4.28-2.47-1.6-1.34-2.78-2.85-3.54-4.53-.77-1.68-1.14-3.44-1.13-5.28.02-1.84.41-3.71,1.2-5.61.78-1.9,1.91-3.73,3.39-5.5,1.66-1.98,3.41-3.57,5.24-4.77,1.84-1.2,3.77-2.07,5.8-2.62l4.3,6.17Z"/>
  </g>
  <path class="cls-1" d="M202.6,171.79l30.81,30.81c228.03-212.1,583-212.1,811.03,0l30.81-30.81c-245.05-229.06-627.6-229.07-872.65,0Z"/>
  <path class="cls-1" d="M1044.45,1075.25c-228.03,212.1-583,212.1-811.03,0l-30.81,30.81c245.05,229.06,627.6,229.07,872.65,0l-30.81-30.81Z"/>
  <path class="cls-1" d="M1105.57,636.33l-.24-.38c.14.21.28.45.38.69-.03-.1-.07-.21-.14-.31ZM1105.57,636.33l-.24-.38c.14.21.28.45.38.69-.03-.1-.07-.21-.14-.31ZM1105.57,636.33l-.24-.38c.14.21.28.45.38.69-.03-.1-.07-.21-.14-.31ZM1105.57,636.33l-.24-.38c.14.21.28.45.38.69-.03-.1-.07-.21-.14-.31Z"/>
  <path class="cls-1" d="M185.33,641.23c.03.1.07.21.14.31l.24.38c-.14-.21-.28-.45-.38-.7Z"/>
</svg>