<?xml version="1.0" encoding="UTF-8"?>
<svg id="Layer_1" data-name="Layer 1" xmlns="http://www.w3.org/2000/svg" viewBox="0 0 1155.24 73.49">
  <defs>
    <style>
      .cls-1 {
        fill: #231f20;
      }
    </style>
  </defs>
  <path class="cls-1" d="M3.47,57.04c2.42,1.59,4.94,2.83,7.6,3.69,2.65.87,5.31,1.29,7.97,1.29,1.6,0,3.03-.17,4.3-.51,1.27-.35,2.36-.85,3.27-1.5.91-.66,1.61-1.45,2.09-2.38.49-.92.73-1.98.73-3.17,0-1.53-.42-2.89-1.27-4.04-.85-1.16-1.96-2.19-3.34-3.08-1.38-.9-2.96-1.74-4.73-2.54-1.77-.8-3.57-1.65-5.41-2.54-1.83-.9-3.64-1.88-5.4-2.94-1.77-1.06-3.35-2.34-4.73-3.81-1.38-1.47-2.48-3.19-3.32-5.15-.83-1.96-1.24-4.26-1.24-6.89,0-2.97.54-5.66,1.62-8.04,1.08-2.38,2.6-4.41,4.56-6.09,1.96-1.68,4.32-2.94,7.06-3.81,2.75-.86,5.78-1.29,9.11-1.29s6.43.41,9.21,1.22,5.4,2,7.88,3.57l-3.11,10.44c-2.23-1.38-4.49-2.44-6.79-3.17-2.29-.74-4.65-1.11-7.06-1.11-1.35,0-2.61.17-3.77.49-1.16.33-2.16.8-2.99,1.41-.83.61-1.48,1.37-1.96,2.26-.47.9-.71,1.89-.71,2.98,0,1.5.42,2.8,1.25,3.88.83,1.08,1.94,2.07,3.32,2.96,1.38.89,2.96,1.72,4.74,2.49,1.77.77,3.58,1.59,5.41,2.47s3.64,1.87,5.41,2.96c1.78,1.09,3.35,2.39,4.74,3.88,1.38,1.49,2.48,3.24,3.32,5.24.83,2.01,1.25,4.38,1.25,7.1,0,3.04-.58,5.78-1.74,8.21-1.16,2.43-2.78,4.5-4.85,6.21-2.07,1.71-4.53,3.01-7.39,3.92s-5.96,1.37-9.32,1.37c-3.77,0-7.18-.47-10.24-1.39-3.06-.92-5.85-2.26-8.35-4.02l2.87-10.58Z"/>
  <path class="cls-1" d="M108.34,67.9c-2.57,1.66-5.38,2.93-8.42,3.81-3.04.88-6.32,1.32-9.82,1.32-3.89,0-7.37-.56-10.44-1.67-3.07-1.11-5.68-2.73-7.83-4.84-2.15-2.12-3.8-4.7-4.94-7.76-1.14-3.05-1.72-6.49-1.72-10.32s.54-7.38,1.62-10.49c1.08-3.1,2.61-5.77,4.58-7.99,1.98-2.23,4.35-3.93,7.13-5.13,2.77-1.19,5.82-1.79,9.15-1.79,3.04,0,5.8.51,8.28,1.53,2.47,1.02,4.58,2.51,6.32,4.46,1.74,1.96,3.08,4.35,4.02,7.17s1.41,6.05,1.41,9.69c0,.91-.02,1.76-.07,2.56-.04.8-.13,1.6-.26,2.42h-29.62v.09c.19,1.85.63,3.5,1.34,4.96.71,1.46,1.64,2.69,2.8,3.69s2.56,1.78,4.2,2.33c1.64.55,3.51.82,5.61.82,2.69,0,5.19-.39,7.49-1.17s4.51-1.93,6.64-3.43l2.54,9.73ZM95.59,42.22c-.03-1.44-.24-2.74-.63-3.91-.39-1.16-.94-2.15-1.64-2.98-.7-.83-1.56-1.47-2.58-1.91-1.01-.44-2.15-.65-3.4-.65s-2.34.2-3.35.61-1.92,1.02-2.72,1.84c-.8.81-1.47,1.81-2.04,2.98-.56,1.17-.98,2.51-1.27,4.02h17.64Z"/>
  <path class="cls-1" d="M134.11,24.02h9.86l.9,5.93c.85-1.13,1.7-2.12,2.56-2.99.86-.86,1.74-1.59,2.65-2.19.91-.59,1.85-1.03,2.84-1.32.98-.28,2.02-.42,3.12-.42.91,0,1.75.09,2.51.26.77.17,1.49.43,2.18.78l-.98,11.05c-.69-.34-1.38-.6-2.08-.77s-1.42-.26-2.13-.26-1.44.1-2.16.3c-.72.21-1.45.53-2.18.99s-1.47,1.05-2.23,1.79c-.75.74-1.51,1.67-2.29,2.8v32.07h-12.56V24.02Z"/>
  <path class="cls-1" d="M224.87,24.02c-1.85,8.06-4.11,16.09-6.78,24.07-2.67,8-5.79,15.97-9.37,23.94h-14.9c-3.6-7.96-6.74-15.94-9.42-23.94-2.68-7.99-4.91-16.02-6.69-24.07h12.88c.63,2.98,1.32,6,2.07,9.08.75,3.07,1.58,6.14,2.51,9.22.92,3.07,1.92,6.14,2.98,9.22s2.17,6.1,3.33,9.08c1.13-2.98,2.23-6,3.29-9.08,1.06-3.07,2.04-6.14,2.96-9.22s1.75-6.14,2.51-9.22,1.45-6.1,2.08-9.08h12.55Z"/>
  <path class="cls-1" d="M254.07.38c1.19,0,2.29.21,3.3.63,1,.43,1.88,1,2.63,1.74s1.34,1.61,1.76,2.63c.42,1.02.63,2.11.63,3.27s-.21,2.29-.63,3.29c-.43,1-1.01,1.88-1.76,2.61-.75.74-1.63,1.32-2.63,1.74-1,.42-2.1.63-3.3.63s-2.29-.21-3.29-.63c-1-.43-1.88-1-2.63-1.74-.75-.73-1.34-1.6-1.77-2.61-.42-1-.63-2.1-.63-3.29s.21-2.25.63-3.27c.43-1.02,1.01-1.9,1.77-2.63s1.63-1.32,2.63-1.74c1-.42,2.1-.63,3.29-.63ZM247.82,24.02h12.56v48.01h-12.56V24.02Z"/>
  <path class="cls-1" d="M324.37,68.04c-2.17,1.59-4.56,2.81-7.17,3.68-2.62.87-5.46,1.31-8.54,1.31-3.39,0-6.47-.57-9.26-1.72-2.79-1.14-5.18-2.78-7.17-4.91-1.99-2.13-3.54-4.72-4.65-7.76-1.11-3.04-1.67-6.47-1.67-10.29,0-4.07.61-7.68,1.84-10.81,1.22-3.13,2.89-5.78,5.01-7.92,2.11-2.14,4.59-3.78,7.43-4.89,2.84-1.11,5.87-1.67,9.1-1.67,2.66,0,5.08.35,7.27,1.06,2.18.7,4.16,1.7,5.95,2.98l-2.73,9.78c-1.38-1.03-2.84-1.83-4.37-2.38-1.53-.54-3.12-.82-4.75-.82s-3.18.31-4.63.92c-1.46.61-2.73,1.5-3.81,2.68-1.08,1.18-1.95,2.64-2.58,4.41-.64,1.76-.97,3.8-.97,6.12s.28,4.24.85,6.03c.56,1.79,1.38,3.3,2.45,4.54s2.36,2.19,3.88,2.85c1.52.66,3.22.98,5.1.98,2.2,0,4.15-.35,5.86-1.05,1.71-.71,3.32-1.75,4.82-3.13l2.78,10.01Z"/>
  <path class="cls-1" d="M387.16,67.9c-2.57,1.66-5.38,2.93-8.42,3.81-3.04.88-6.32,1.32-9.82,1.32-3.89,0-7.37-.56-10.44-1.67-3.07-1.11-5.68-2.73-7.83-4.84-2.15-2.12-3.8-4.7-4.94-7.76-1.14-3.05-1.72-6.49-1.72-10.32s.54-7.38,1.62-10.49c1.08-3.1,2.61-5.77,4.58-7.99,1.98-2.23,4.35-3.93,7.13-5.13,2.77-1.19,5.82-1.79,9.15-1.79,3.04,0,5.8.51,8.28,1.53,2.47,1.02,4.58,2.51,6.32,4.46,1.74,1.96,3.08,4.35,4.02,7.17s1.41,6.05,1.41,9.69c0,.91-.02,1.76-.07,2.56-.04.8-.13,1.6-.26,2.42h-29.62v.09c.19,1.85.63,3.5,1.34,4.96.71,1.46,1.64,2.69,2.8,3.69s2.56,1.78,4.2,2.33c1.64.55,3.51.82,5.61.82,2.69,0,5.19-.39,7.49-1.17s4.51-1.93,6.64-3.43l2.54,9.73ZM374.41,42.22c-.03-1.44-.24-2.74-.63-3.91-.39-1.16-.94-2.15-1.64-2.98-.7-.83-1.56-1.47-2.58-1.91-1.01-.44-2.15-.65-3.4-.65s-2.34.2-3.35.61-1.92,1.02-2.72,1.84c-.8.81-1.47,1.81-2.04,2.98-.56,1.17-.98,2.51-1.27,4.02h17.64Z"/>
  <path class="cls-1" d="M413.44,59.72c2.03,1.19,4.05,2.09,6.04,2.7,1.99.61,4.02.92,6.09.92,1.1,0,2.08-.1,2.94-.3s1.58-.49,2.16-.87,1.03-.82,1.37-1.34c.33-.51.49-1.09.49-1.71,0-1-.32-1.86-.96-2.56-.64-.71-1.48-1.33-2.51-1.88-1.04-.55-2.22-1.06-3.55-1.55-1.33-.49-2.69-1.01-4.07-1.6-1.38-.58-2.73-1.24-4.06-1.97-1.34-.73-2.52-1.64-3.55-2.73-1.04-1.08-1.87-2.37-2.49-3.88s-.94-3.3-.94-5.37c0-2.19.43-4.18,1.29-5.97s2.11-3.3,3.74-4.54c1.63-1.24,3.58-2.2,5.86-2.89s4.84-1.03,7.69-1.03c2.51,0,4.93.28,7.27.85,2.34.56,4.46,1.4,6.37,2.49l-2.59,9.5c-1.57-1-3.28-1.78-5.12-2.33-1.85-.54-3.69-.82-5.5-.82-1.03,0-1.97.09-2.82.28s-1.55.45-2.12.78c-.56.33-.98.73-1.27,1.2s-.43,1.02-.43,1.65c0,.97.32,1.78.94,2.45.63.65,1.47,1.24,2.52,1.76,1.05.51,2.24,1.01,3.57,1.48,1.33.47,2.69.98,4.06,1.55,1.38.56,2.73,1.23,4.05,1.98s2.5,1.68,3.57,2.8c1.06,1.11,1.91,2.44,2.53,3.97.63,1.53.94,3.35.94,5.45,0,2.29-.45,4.35-1.36,6.18-.91,1.83-2.19,3.39-3.86,4.68s-3.67,2.27-6.02,2.96c-2.35.69-4.94,1.04-7.76,1.04-1.41,0-2.8-.08-4.16-.24-1.37-.16-2.67-.39-3.93-.7-1.25-.32-2.46-.71-3.62-1.18s-2.23-1-3.2-1.6l2.4-9.59Z"/>
  <path class="cls-1" d="M561.75,73.49l-8.88-8.28c-2.82,2.48-6.07,4.4-9.74,5.76-3.67,1.37-7.79,2.05-12.37,2.05-3.51,0-6.67-.44-9.47-1.3-2.81-.86-5.2-2.09-7.17-3.69-1.98-1.59-3.49-3.53-4.54-5.81-1.05-2.27-1.58-4.82-1.58-7.64,0-2.36.33-4.47.99-6.37.66-1.9,1.55-3.62,2.68-5.17,1.13-1.55,2.44-2.97,3.92-4.28,1.48-1.3,3.03-2.48,4.63-3.55-1.16-1.23-2.25-2.49-3.27-3.81s-1.9-2.7-2.65-4.14-1.35-2.94-1.79-4.49c-.44-1.55-.65-3.19-.65-4.91,0-2.66.5-5.09,1.52-7.29,1.02-2.2,2.46-4.08,4.33-5.64,1.87-1.57,4.12-2.78,6.75-3.65,2.63-.86,5.56-1.29,8.79-1.29,3.01,0,5.74.38,8.18,1.13s4.54,1.83,6.28,3.22c1.74,1.4,3.09,3.09,4.04,5.08s1.44,4.22,1.44,6.7-.43,4.6-1.29,6.56c-.87,1.96-2,3.74-3.41,5.34s-3.01,3.05-4.8,4.35-3.6,2.5-5.45,3.6l13.4,12.46c.72-1.91,1.3-3.92,1.74-6.02s.66-4.26.66-6.49h11.66c-.09,3.67-.59,7.23-1.48,10.67-.9,3.45-2.2,6.66-3.93,9.64l9.13,8.46-7.67,8.79ZM527.94,42.41c-1.06.78-2.03,1.57-2.91,2.38-.88.8-1.64,1.64-2.28,2.51-.64.88-1.14,1.82-1.48,2.82-.35,1-.52,2.08-.52,3.24,0,1.42.27,2.71.8,3.88.53,1.18,1.31,2.2,2.33,3.06,1.01.86,2.26,1.52,3.71,1.97,1.46.46,3.11.68,4.96.68,2.5,0,4.81-.42,6.91-1.27,2.1-.85,3.96-2.04,5.59-3.57l-17.12-15.7ZM532.69,9.97c-1.19,0-2.28.2-3.27.59-.99.39-1.84.93-2.56,1.6s-1.28,1.47-1.67,2.4c-.4.93-.59,1.94-.59,3.03,0,1.03.15,2.03.45,2.98.3.96.71,1.89,1.22,2.8.52.91,1.14,1.82,1.88,2.72.74.91,1.56,1.82,2.47,2.73,1.57-.98,2.96-1.91,4.19-2.8,1.22-.89,2.26-1.79,3.1-2.7.85-.91,1.5-1.87,1.96-2.89.45-1.02.68-2.16.68-3.41,0-1-.19-1.94-.58-2.8-.4-.86-.94-1.61-1.62-2.24-.69-.62-1.52-1.12-2.49-1.48-.97-.36-2.02-.54-3.15-.54Z"/>
  <path class="cls-1" d="M664.39,5.22c4.39,11.01,8.31,22.14,11.76,33.41,3.45,11.27,6.26,22.41,8.42,33.41h-13.4c-.41-2.19-.84-4.41-1.3-6.65-.46-2.24-.97-4.51-1.53-6.8h-24.4c-.56,2.29-1.08,4.55-1.55,6.8-.47,2.24-.91,4.46-1.32,6.65h-13.07c2.16-11,4.98-22.14,8.46-33.41,3.47-11.27,7.37-22.4,11.7-33.41h16.22ZM665.67,47.96c-1.38-5.05-2.87-10.04-4.45-14.98-1.59-4.93-3.31-9.8-5.16-14.6-1.75,4.8-3.44,9.67-5.07,14.6-1.63,4.94-3.11,9.93-4.46,14.98h19.14Z"/>
  <path class="cls-1" d="M743.31,68.04c-2.17,1.59-4.56,2.81-7.17,3.68-2.62.87-5.46,1.31-8.54,1.31-3.39,0-6.47-.57-9.26-1.72-2.79-1.14-5.18-2.78-7.17-4.91s-3.54-4.72-4.65-7.76c-1.11-3.04-1.67-6.47-1.67-10.29,0-4.07.61-7.68,1.84-10.81,1.22-3.13,2.89-5.78,5.01-7.92,2.11-2.14,4.59-3.78,7.43-4.89,2.84-1.11,5.87-1.67,9.1-1.67,2.66,0,5.08.35,7.27,1.06,2.18.7,4.16,1.7,5.95,2.98l-2.73,9.78c-1.38-1.03-2.84-1.83-4.37-2.38-1.53-.54-3.12-.82-4.75-.82s-3.18.31-4.63.92c-1.46.61-2.73,1.5-3.81,2.68-1.08,1.18-1.95,2.64-2.58,4.41-.64,1.76-.97,3.8-.97,6.12s.28,4.24.85,6.03c.56,1.79,1.38,3.3,2.45,4.54,1.06,1.24,2.36,2.19,3.88,2.85,1.52.66,3.22.98,5.1.98,2.2,0,4.15-.35,5.86-1.05,1.71-.71,3.32-1.75,4.82-3.13l2.78,10.01Z"/>
  <path class="cls-1" d="M761.22,33.9v-9.88h6.77v-11.47l12.55-1.22v12.69h13.35v9.88h-13.35v21.44c0,2.35.53,4.1,1.59,5.24,1.06,1.14,2.63,1.72,4.69,1.72,1.34,0,2.61-.22,3.82-.66,1.21-.44,2.39-1.11,3.54-2.02l1.59,10.06c-1.69,1.13-3.59,1.97-5.69,2.51-2.1.55-4.23.83-6.39.83-5.08,0-8.96-1.37-11.66-4.09-2.7-2.73-4.04-6.88-4.04-12.46v-22.57h-6.77Z"/>
  <path class="cls-1" d="M824.28.38c1.19,0,2.29.21,3.3.63,1,.43,1.88,1,2.63,1.74s1.34,1.61,1.76,2.63c.42,1.02.63,2.11.63,3.27s-.21,2.29-.63,3.29c-.43,1-1.01,1.88-1.76,2.61-.75.74-1.63,1.32-2.63,1.74-1,.42-2.1.63-3.3.63s-2.29-.21-3.29-.63c-1-.43-1.88-1-2.63-1.74-.75-.73-1.34-1.6-1.77-2.61-.42-1-.63-2.1-.63-3.29s.21-2.25.63-3.27c.43-1.02,1.01-1.9,1.77-2.63.75-.74,1.63-1.32,2.63-1.74,1-.42,2.1-.63,3.29-.63ZM818.03,24.02h12.56v48.01h-12.56V24.02Z"/>
  <path class="cls-1" d="M900.74,24.02c-1.85,8.06-4.11,16.09-6.78,24.07-2.67,8-5.79,15.97-9.37,23.94h-14.9c-3.6-7.96-6.74-15.94-9.42-23.94-2.68-7.99-4.91-16.02-6.69-24.07h12.88c.63,2.98,1.32,6,2.07,9.08.75,3.07,1.58,6.14,2.51,9.22.92,3.07,1.92,6.14,2.98,9.22s2.17,6.1,3.33,9.08c1.13-2.98,2.23-6,3.29-9.08,1.06-3.07,2.04-6.14,2.96-9.22.92-3.07,1.75-6.14,2.51-9.22s1.45-6.1,2.08-9.08h12.55Z"/>
  <path class="cls-1" d="M929.95.38c1.19,0,2.29.21,3.3.63,1,.43,1.88,1,2.63,1.74s1.34,1.61,1.76,2.63c.42,1.02.63,2.11.63,3.27s-.21,2.29-.63,3.29c-.43,1-1.01,1.88-1.76,2.61-.75.74-1.63,1.32-2.63,1.74-1,.42-2.1.63-3.3.63s-2.29-.21-3.29-.63c-1-.43-1.88-1-2.63-1.74-.75-.73-1.34-1.6-1.77-2.61-.42-1-.63-2.1-.63-3.29s.21-2.25.63-3.27c.43-1.02,1.01-1.9,1.77-2.63.75-.74,1.63-1.32,2.63-1.74,1-.42,2.1-.63,3.29-.63ZM923.7,24.02h12.56v48.01h-12.56V24.02Z"/>
  <path class="cls-1" d="M959.39,33.9v-9.88h6.77v-11.47l12.55-1.22v12.69h13.35v9.88h-13.35v21.44c0,2.35.53,4.1,1.59,5.24,1.06,1.14,2.63,1.72,4.69,1.72,1.34,0,2.61-.22,3.82-.66,1.21-.44,2.39-1.11,3.54-2.02l1.59,10.06c-1.69,1.13-3.59,1.97-5.69,2.51-2.1.55-4.23.83-6.39.83-5.08,0-8.96-1.37-11.66-4.09-2.7-2.73-4.04-6.88-4.04-12.46v-22.57h-6.77Z"/>
  <path class="cls-1" d="M1022.45.38c1.19,0,2.29.21,3.3.63,1,.43,1.88,1,2.63,1.74.75.74,1.34,1.61,1.76,2.63.42,1.02.63,2.11.63,3.27s-.21,2.29-.63,3.29c-.43,1-1.01,1.88-1.76,2.61-.75.74-1.63,1.32-2.63,1.74-1,.42-2.1.63-3.3.63s-2.29-.21-3.29-.63c-1-.43-1.88-1-2.63-1.74-.75-.73-1.34-1.6-1.77-2.61-.42-1-.63-2.1-.63-3.29s.21-2.25.63-3.27c.43-1.02,1.01-1.9,1.77-2.63s1.63-1.32,2.63-1.74c1-.42,2.1-.63,3.29-.63ZM1016.2,24.02h12.56v48.01h-12.56V24.02Z"/>
  <path class="cls-1" d="M1097.45,67.9c-2.57,1.66-5.38,2.93-8.42,3.81-3.04.88-6.32,1.32-9.82,1.32-3.89,0-7.37-.56-10.44-1.67-3.07-1.11-5.68-2.73-7.83-4.84-2.15-2.12-3.8-4.7-4.94-7.76-1.14-3.05-1.72-6.49-1.72-10.32s.54-7.38,1.62-10.49c1.08-3.1,2.61-5.77,4.58-7.99,1.98-2.23,4.35-3.93,7.13-5.13,2.77-1.19,5.82-1.79,9.15-1.79,3.04,0,5.8.51,8.28,1.53,2.47,1.02,4.58,2.51,6.32,4.46,1.74,1.96,3.08,4.35,4.02,7.17.94,2.82,1.41,6.05,1.41,9.69,0,.91-.02,1.76-.07,2.56-.04.8-.13,1.6-.26,2.42h-29.62v.09c.19,1.85.63,3.5,1.34,4.96.71,1.46,1.64,2.69,2.8,3.69,1.16,1,2.56,1.78,4.2,2.33,1.64.55,3.51.82,5.61.82,2.69,0,5.19-.39,7.49-1.17s4.51-1.93,6.64-3.43l2.54,9.73ZM1084.71,42.22c-.03-1.44-.24-2.74-.63-3.91-.39-1.16-.94-2.15-1.64-2.98-.7-.83-1.56-1.47-2.58-1.91-1.01-.44-2.15-.65-3.4-.65s-2.34.2-3.35.61-1.92,1.02-2.72,1.84c-.8.81-1.47,1.81-2.04,2.98-.56,1.17-.98,2.51-1.27,4.02h17.64Z"/>
  <path class="cls-1" d="M1123.75,59.72c2.03,1.19,4.05,2.09,6.04,2.7,1.99.61,4.02.92,6.09.92,1.1,0,2.08-.1,2.94-.3s1.58-.49,2.16-.87c.58-.38,1.03-.82,1.37-1.34.33-.51.49-1.09.49-1.71,0-1-.32-1.86-.96-2.56-.64-.71-1.48-1.33-2.51-1.88-1.04-.55-2.22-1.06-3.55-1.55-1.33-.49-2.69-1.01-4.07-1.6-1.38-.58-2.73-1.24-4.06-1.97-1.34-.73-2.52-1.64-3.55-2.73-1.04-1.08-1.87-2.37-2.49-3.88-.63-1.5-.94-3.3-.94-5.37,0-2.19.43-4.18,1.29-5.97.86-1.79,2.11-3.3,3.74-4.54,1.63-1.24,3.58-2.2,5.86-2.89s4.84-1.03,7.69-1.03c2.51,0,4.93.28,7.27.85s4.46,1.4,6.37,2.49l-2.59,9.5c-1.57-1-3.28-1.78-5.12-2.33-1.85-.54-3.69-.82-5.5-.82-1.03,0-1.97.09-2.82.28s-1.55.45-2.12.78c-.56.33-.98.73-1.27,1.2s-.43,1.02-.43,1.65c0,.97.32,1.78.94,2.45.63.65,1.47,1.24,2.52,1.76,1.05.51,2.24,1.01,3.57,1.48,1.33.47,2.69.98,4.06,1.55,1.38.56,2.73,1.23,4.05,1.98,1.32.75,2.5,1.68,3.57,2.8,1.06,1.11,1.91,2.44,2.53,3.97.63,1.53.94,3.35.94,5.45,0,2.29-.45,4.35-1.36,6.18-.91,1.83-2.19,3.39-3.86,4.68-1.66,1.29-3.67,2.27-6.02,2.96-2.35.69-4.94,1.04-7.76,1.04-1.41,0-2.8-.08-4.16-.24-1.37-.16-2.67-.39-3.93-.7-1.25-.32-2.46-.71-3.62-1.18-1.16-.47-2.23-1-3.2-1.6l2.4-9.59Z"/>
</svg>