<?xml version="1.0" encoding="UTF-8"?>
<svg id="Layer_1" data-name="Layer 1" xmlns="http://www.w3.org/2000/svg" viewBox="0 0 202.9 73.49">
  <defs>
    <style>
      .cls-1 {
        fill: #231f20;
      }
    </style>
  </defs>
  <path class="cls-1" d="M3.47,57.04c2.42,1.59,4.94,2.83,7.6,3.69,2.65.87,5.31,1.29,7.97,1.29,1.6,0,3.03-.17,4.3-.51,1.27-.35,2.36-.85,3.27-1.5.91-.66,1.61-1.45,2.09-2.38.49-.92.73-1.98.73-3.17,0-1.53-.42-2.89-1.27-4.04-.85-1.16-1.96-2.19-3.34-3.08-1.38-.9-2.96-1.74-4.73-2.54-1.77-.8-3.57-1.65-5.41-2.54-1.83-.9-3.64-1.88-5.4-2.94-1.77-1.06-3.35-2.34-4.73-3.81-1.38-1.47-2.48-3.19-3.32-5.15-.83-1.96-1.24-4.26-1.24-6.89,0-2.97.54-5.66,1.62-8.04,1.08-2.38,2.6-4.41,4.56-6.09,1.96-1.68,4.32-2.94,7.06-3.81,2.75-.86,5.78-1.29,9.11-1.29s6.43.41,9.21,1.22,5.4,2,7.88,3.57l-3.11,10.44c-2.23-1.38-4.49-2.44-6.79-3.17-2.29-.74-4.65-1.11-7.06-1.11-1.35,0-2.61.17-3.77.49-1.16.33-2.16.8-2.99,1.41-.83.61-1.48,1.37-1.96,2.26-.47.9-.71,1.89-.71,2.98,0,1.5.42,2.8,1.25,3.88.83,1.08,1.94,2.07,3.32,2.96,1.38.89,2.96,1.72,4.74,2.49,1.77.77,3.58,1.59,5.41,2.47s3.64,1.87,5.41,2.96c1.78,1.09,3.35,2.39,4.74,3.88,1.38,1.49,2.48,3.24,3.32,5.24.83,2.01,1.25,4.38,1.25,7.1,0,3.04-.58,5.78-1.74,8.21-1.16,2.43-2.78,4.5-4.85,6.21-2.07,1.71-4.53,3.01-7.39,3.92s-5.96,1.37-9.32,1.37c-3.77,0-7.18-.47-10.24-1.39-3.06-.92-5.85-2.26-8.35-4.02l2.87-10.58Z"/>
  <path class="cls-1" d="M119.86,73.49l-8.88-8.28c-2.82,2.48-6.07,4.4-9.74,5.76-3.67,1.37-7.79,2.05-12.37,2.05-3.51,0-6.67-.44-9.47-1.3-2.81-.86-5.2-2.09-7.17-3.69-1.98-1.59-3.49-3.53-4.54-5.81-1.05-2.27-1.58-4.82-1.58-7.64,0-2.36.33-4.47.99-6.37.66-1.9,1.55-3.62,2.68-5.17,1.13-1.55,2.44-2.97,3.92-4.28,1.48-1.3,3.03-2.48,4.63-3.55-1.16-1.23-2.25-2.49-3.27-3.81s-1.9-2.7-2.65-4.14-1.35-2.94-1.79-4.49c-.44-1.55-.65-3.19-.65-4.91,0-2.66.5-5.09,1.52-7.29,1.02-2.2,2.46-4.08,4.33-5.64,1.87-1.57,4.12-2.78,6.75-3.65,2.63-.86,5.56-1.29,8.79-1.29,3.01,0,5.74.38,8.18,1.13s4.54,1.83,6.28,3.22c1.74,1.4,3.09,3.09,4.04,5.08s1.44,4.22,1.44,6.7-.43,4.6-1.29,6.56c-.87,1.96-2,3.74-3.41,5.34s-3.01,3.05-4.8,4.35-3.6,2.5-5.45,3.6l13.4,12.46c.72-1.91,1.3-3.92,1.74-6.02s.66-4.26.66-6.49h11.66c-.09,3.67-.59,7.23-1.48,10.67-.9,3.45-2.2,6.66-3.93,9.64l9.13,8.46-7.67,8.79ZM86.05,42.41c-1.06.78-2.03,1.57-2.91,2.38-.88.8-1.64,1.64-2.28,2.51-.64.88-1.14,1.82-1.48,2.82-.35,1-.52,2.08-.52,3.24,0,1.42.27,2.71.8,3.88.53,1.18,1.31,2.2,2.33,3.06,1.01.86,2.26,1.52,3.71,1.97,1.46.46,3.11.68,4.96.68,2.5,0,4.81-.42,6.91-1.27,2.1-.85,3.96-2.04,5.59-3.57l-17.12-15.7ZM90.8,9.97c-1.19,0-2.28.2-3.27.59-.99.39-1.84.93-2.56,1.6s-1.28,1.47-1.67,2.4c-.4.93-.59,1.94-.59,3.03,0,1.03.15,2.03.45,2.98.3.96.71,1.89,1.22,2.8.52.91,1.14,1.82,1.88,2.72.74.91,1.56,1.82,2.47,2.73,1.57-.98,2.96-1.91,4.19-2.8,1.22-.89,2.26-1.79,3.1-2.7.85-.91,1.5-1.87,1.96-2.89.45-1.02.68-2.16.68-3.41,0-1-.19-1.94-.58-2.8-.4-.86-.94-1.61-1.62-2.24-.69-.62-1.52-1.12-2.49-1.48-.97-.36-2.02-.54-3.15-.54Z"/>
  <path class="cls-1" d="M182.72,5.22c4.39,11.01,8.31,22.14,11.76,33.41,3.45,11.27,6.26,22.41,8.42,33.41h-13.4c-.41-2.19-.84-4.41-1.3-6.65s-.97-4.51-1.53-6.8h-24.4c-.56,2.29-1.08,4.55-1.55,6.8-.47,2.24-.91,4.46-1.32,6.65h-13.07c2.16-11,4.98-22.14,8.46-33.41,3.47-11.27,7.37-22.4,11.7-33.41h16.22ZM183.99,47.96c-1.38-5.05-2.87-10.04-4.45-14.98-1.59-4.93-3.31-9.8-5.16-14.6-1.75,4.8-3.44,9.67-5.07,14.6-1.63,4.94-3.11,9.93-4.46,14.98h19.14Z"/>
</svg>